<?xml version="1.0" encoding="UTF-8"?>
<!DOCTYPE svg PUBLIC "-//W3C//DTD SVG 1.1//EN" "http://www.w3.org/Graphics/SVG/1.1/DTD/svg11.dtd">
<svg xmlns="http://www.w3.org/2000/svg" version="1.1" width="256px" height="256px" style="shape-rendering:geometricPrecision; text-rendering:geometricPrecision; image-rendering:optimizeQuality; fill-rule:evenodd; clip-rule:evenodd" xmlns:xlink="http://www.w3.org/1999/xlink">
<g><path style="opacity:0.978" fill="#5834d5" d="M 163.5,20.5 C 160.918,21.2098 158.418,21.2098 156,20.5C 155.125,22.5127 153.791,22.5127 152,20.5C 149.333,23.1667 146.667,23.1667 144,20.5C 138.257,19.8423 132.59,20.5089 127,22.5C 125.333,21.8333 123.667,21.1667 122,20.5C 121.125,22.5127 119.791,22.5127 118,20.5C 115.004,22.491 112.171,22.491 109.5,20.5C 106.317,21.2438 103.317,21.2438 100.5,20.5C 98.7583,22.9734 96.925,22.9734 95,20.5C 93.6439,21.3802 92.1439,21.7135 90.5,21.5C 102.339,14.4126 114.672,8.07931 127.5,2.5C 139.8,7.98345 151.8,13.9835 163.5,20.5 Z"/></g>
<g><path style="opacity:0.992" fill="#603fd5" d="M 163.5,20.5 C 171.676,25.0884 180.009,29.4218 188.5,33.5C 187.159,35.12 185.326,36.12 183,36.5C 144.912,35.7924 106.579,35.7924 68,36.5C 66.583,35.9221 65.7496,34.9221 65.5,33.5C 73.707,29.2298 82.0404,25.2298 90.5,21.5C 92.1439,21.7135 93.6439,21.3802 95,20.5C 96.925,22.9734 98.7583,22.9734 100.5,20.5C 103.317,21.2438 106.317,21.2438 109.5,20.5C 112.171,22.491 115.004,22.491 118,20.5C 119.791,22.5127 121.125,22.5127 122,20.5C 123.667,21.1667 125.333,21.8333 127,22.5C 132.59,20.5089 138.257,19.8423 144,20.5C 146.667,23.1667 149.333,23.1667 152,20.5C 153.791,22.5127 155.125,22.5127 156,20.5C 158.418,21.2098 160.918,21.2098 163.5,20.5 Z"/></g>
<g><path style="opacity:0.993" fill="#6647d5" d="M 65.5,33.5 C 65.7496,34.9221 66.583,35.9221 68,36.5C 106.579,35.7924 144.912,35.7924 183,36.5C 185.326,36.12 187.159,35.12 188.5,33.5C 192.535,35.8483 196.535,38.1816 200.5,40.5C 200.631,41.3764 200.298,42.0431 199.5,42.5C 149.739,42.7299 100.406,42.3965 51.5,41.5C 55.8871,38.4693 60.5537,35.8026 65.5,33.5 Z"/></g>
<g><path style="opacity:0.996" fill="#6b4ed5" d="M 200.5,40.5 C 206.117,42.6417 211.45,45.3084 216.5,48.5C 156.645,49.5724 96.9781,49.5724 37.5,48.5C 41.8489,45.6589 46.5156,43.3255 51.5,41.5C 100.406,42.3965 149.739,42.7299 199.5,42.5C 200.298,42.0431 200.631,41.3764 200.5,40.5 Z"/></g>
<g><path style="opacity:0.994" fill="#7154d4" d="M 37.5,48.5 C 96.9781,49.5724 156.645,49.5724 216.5,48.5C 221.027,50.5951 225.361,52.9284 229.5,55.5C 161.86,54.5486 93.86,54.2152 25.5,54.5C 29.1822,51.9922 33.1822,49.9922 37.5,48.5 Z"/></g>
<g><path style="opacity:0.996" fill="#755ad5" d="M 25.5,54.5 C 93.86,54.2152 161.86,54.5486 229.5,55.5C 231.153,55.6596 232.486,56.3263 233.5,57.5C 231.881,59.4606 229.714,60.7939 227,61.5C 161.116,60.7274 94.9489,60.3941 28.5,60.5C 26.6639,61.0276 24.9972,61.6942 23.5,62.5C 21.5,61.8333 19.5,61.1667 17.5,60.5C 16.2267,59.9232 16.2267,59.2565 17.5,58.5C 19.9553,56.7033 22.622,55.37 25.5,54.5 Z"/></g>
<g><path style="opacity:0.983" fill="#532ed4" d="M 17.5,60.5 C 19.5,61.1667 21.5,61.8333 23.5,62.5C 26.5488,64.8627 29.8822,66.8627 33.5,68.5C 38.8599,71.1799 44.1932,73.8466 49.5,76.5C 49.5,76.8333 49.5,77.1667 49.5,77.5C 48.2225,78.7495 47.2225,80.2495 46.5,82C 43.736,82.2633 42.0694,83.7633 41.5,86.5C 38.7427,87.7532 36.4094,89.5865 34.5,92C 34.8333,92.3333 35.1667,92.6667 35.5,93C 33.5,94 31.5,95 29.5,96C 29.9574,96.414 30.2907,96.914 30.5,97.5C 25.7374,100.255 22.4041,103.588 20.5,107.5C 19.5832,108.127 18.5832,108.461 17.5,108.5C 17.5,92.5 17.5,76.5 17.5,60.5 Z"/></g>
<g><path style="opacity:0.999" fill="#7960d4" d="M 233.5,57.5 C 235.722,57.9748 236.389,58.9748 235.5,60.5C 232.24,61.7738 229.24,63.4405 226.5,65.5C 225.833,65.5 225.5,65.8333 225.5,66.5C 224.833,66.5 224.167,66.5 223.5,66.5C 174.813,67.2085 124.479,67.2085 72.5,66.5C 68.7152,68.7118 64.8819,68.7118 61,66.5C 53.801,67.4011 46.801,67.4011 40,66.5C 37.723,67.1172 35.5563,67.7839 33.5,68.5C 29.8822,66.8627 26.5488,64.8627 23.5,62.5C 24.9972,61.6942 26.6639,61.0276 28.5,60.5C 94.9489,60.3941 161.116,60.7274 227,61.5C 229.714,60.7939 231.881,59.4606 233.5,57.5 Z"/></g>
<g><path style="opacity:0.998" fill="#7e66d5" d="M 223.5,66.5 C 218.484,69.6745 213.151,72.3412 207.5,74.5C 155.846,74.5101 103.679,74.1768 51,73.5C 50.4867,74.5266 49.9867,75.5266 49.5,76.5C 44.1932,73.8466 38.8599,71.1799 33.5,68.5C 35.5563,67.7839 37.723,67.1172 40,66.5C 46.801,67.4011 53.801,67.4011 61,66.5C 64.8819,68.7118 68.7152,68.7118 72.5,66.5C 124.479,67.2085 174.813,67.2085 223.5,66.5 Z"/></g>
<g><path style="opacity:0.999" fill="#846dd5" d="M 207.5,74.5 C 203.535,76.8184 199.535,79.1517 195.5,81.5C 194.828,80.7326 193.995,80.0659 193,79.5C 172.279,79.2555 152.113,79.5888 132.5,80.5C 131.483,77.972 130.316,77.972 129,80.5C 106.28,80.2772 83.4463,79.9439 60.5,79.5C 59.4777,79.8555 58.811,80.5222 58.5,81.5C 55.6223,79.8946 52.6223,78.5612 49.5,77.5C 49.5,77.1667 49.5,76.8333 49.5,76.5C 49.9867,75.5266 50.4867,74.5266 51,73.5C 103.679,74.1768 155.846,74.5101 207.5,74.5 Z"/></g>
<g><path style="opacity:0.995" fill="#8872d5" d="M 195.5,81.5 C 191.291,83.7712 186.958,85.7712 182.5,87.5C 147.649,87.2297 111.649,86.8964 74.5,86.5C 73.4777,86.8555 72.811,87.5222 72.5,88.5C 69.1932,86.8466 65.8599,85.1799 62.5,83.5C 61.1667,82.8333 59.8333,82.1667 58.5,81.5C 58.811,80.5222 59.4777,79.8555 60.5,79.5C 83.4463,79.9439 106.28,80.2772 129,80.5C 130.316,77.972 131.483,77.972 132.5,80.5C 152.113,79.5888 172.279,79.2555 193,79.5C 193.995,80.0659 194.828,80.7326 195.5,81.5 Z"/></g>
<g><path style="opacity:0.983" fill="#5835d5" d="M 49.5,77.5 C 52.6223,78.5612 55.6223,79.8946 58.5,81.5C 59.8333,82.1667 61.1667,82.8333 62.5,83.5C 61.2055,85.3284 60.2055,87.3284 59.5,89.5C 57.567,89.7286 55.9003,90.5619 54.5,92C 54.8333,92.3333 55.1667,92.6667 55.5,93C 51.3635,94.6367 48.3635,97.47 46.5,101.5C 45.2054,102.098 43.8721,102.598 42.5,103C 43.1667,103.333 43.8333,103.667 44.5,104C 43.1667,104.667 41.8333,105.333 40.5,106C 39.3218,109.185 36.8218,111.685 33,113.5C 30.5393,116.434 28.3726,119.434 26.5,122.5C 25.448,122.351 24.448,122.517 23.5,123C 24.8333,123.667 24.8333,124.333 23.5,125C 21.0727,125.627 19.0727,126.794 17.5,128.5C 17.5,121.833 17.5,115.167 17.5,108.5C 18.5832,108.461 19.5832,108.127 20.5,107.5C 22.4041,103.588 25.7374,100.255 30.5,97.5C 30.2907,96.914 29.9574,96.414 29.5,96C 31.5,95 33.5,94 35.5,93C 35.1667,92.6667 34.8333,92.3333 34.5,92C 36.4094,89.5865 38.7427,87.7532 41.5,86.5C 42.0694,83.7633 43.736,82.2633 46.5,82C 47.2225,80.2495 48.2225,78.7495 49.5,77.5 Z"/></g>
<g><path style="opacity:0.995" fill="#8d79d5" d="M 182.5,87.5 C 178.151,90.3411 173.484,92.6745 168.5,94.5C 165.658,94.3946 162.825,94.3946 160,94.5C 159.667,93.8333 159.333,93.1667 159,92.5C 157.915,93.2931 156.748,93.9598 155.5,94.5C 150.505,94.3907 145.505,94.3907 140.5,94.5C 139.006,94.2908 137.839,93.6241 137,92.5C 136.667,93.1667 136.333,93.8333 136,94.5C 120.247,94.5444 103.914,94.2111 87,93.5C 86.2828,94.0442 85.7828,94.7109 85.5,95.5C 83.5,94.5 81.5,93.5 79.5,92.5C 76.9684,91.4043 74.6351,90.0709 72.5,88.5C 72.811,87.5222 73.4777,86.8555 74.5,86.5C 111.649,86.8964 147.649,87.2297 182.5,87.5 Z"/></g>
<g><path style="opacity:1" fill="#603fd5" d="M 62.5,83.5 C 65.8599,85.1799 69.1932,86.8466 72.5,88.5C 74.6351,90.0709 76.9684,91.4043 79.5,92.5C 79.0825,93.2216 78.4158,93.7216 77.5,94C 77.8333,95 78.1667,96 78.5,97C 72.6941,100.703 67.5275,105.87 63,112.5C 58.3779,115.293 55.0445,118.627 53,122.5C 52.6667,122.167 52.3333,121.833 52,121.5C 49.6733,124.488 47.34,127.488 45,130.5C 44.6667,130.167 44.3333,129.833 44,129.5C 38.1737,137.326 31.3404,144.16 23.5,150C 21.5868,152.067 19.9201,154.234 18.5,156.5C 17.6462,147.195 17.3129,137.861 17.5,128.5C 19.0727,126.794 21.0727,125.627 23.5,125C 24.8333,124.333 24.8333,123.667 23.5,123C 24.448,122.517 25.448,122.351 26.5,122.5C 28.3726,119.434 30.5393,116.434 33,113.5C 36.8218,111.685 39.3218,109.185 40.5,106C 41.8333,105.333 43.1667,104.667 44.5,104C 43.8333,103.667 43.1667,103.333 42.5,103C 43.8721,102.598 45.2054,102.098 46.5,101.5C 48.3635,97.47 51.3635,94.6367 55.5,93C 55.1667,92.6667 54.8333,92.3333 54.5,92C 55.9003,90.5619 57.567,89.7286 59.5,89.5C 60.2055,87.3284 61.2055,85.3284 62.5,83.5 Z"/></g>
<g><path style="opacity:0.994" fill="#9887d5" d="M 235.5,60.5 C 235.5,84.8333 235.5,109.167 235.5,133.5C 225.842,124.669 216.342,115.003 207,104.5C 206.333,105.167 205.667,105.833 205,106.5C 204.682,104.939 203.849,103.772 202.5,103C 202.833,102.667 203.167,102.333 203.5,102C 201.577,99.2377 199.243,97.071 196.5,95.5C 205.973,85.6054 215.64,75.9387 225.5,66.5C 226.167,66.5 226.5,66.1667 226.5,65.5C 229.24,63.4405 232.24,61.7738 235.5,60.5 Z"/></g>
<g><path style="opacity:0.999" fill="#6647d4" d="M 79.5,92.5 C 81.5,93.5 83.5,94.5 85.5,95.5C 86.7095,95.9321 87.7095,96.5987 88.5,97.5C 78.2807,108.559 67.9474,118.726 57.5,128C 49.9571,136.045 42.4571,144.212 35,152.5C 33.9326,153.191 32.7659,153.691 31.5,154C 31.8333,154.333 32.1667,154.667 32.5,155C 27.7458,158.46 23.0791,162.627 18.5,167.5C 18.5,163.833 18.5,160.167 18.5,156.5C 19.9201,154.234 21.5868,152.067 23.5,150C 31.3404,144.16 38.1737,137.326 44,129.5C 44.3333,129.833 44.6667,130.167 45,130.5C 47.34,127.488 49.6733,124.488 52,121.5C 52.3333,121.833 52.6667,122.167 53,122.5C 55.0445,118.627 58.3779,115.293 63,112.5C 67.5275,105.87 72.6941,100.703 78.5,97C 78.1667,96 77.8333,95 77.5,94C 78.4158,93.7216 79.0825,93.2216 79.5,92.5 Z"/></g>
<g><path style="opacity:0.99" fill="#9381d5" d="M 168.5,94.5 C 154.643,102.596 140.31,109.929 125.5,116.5C 123.5,115.5 121.5,114.5 119.5,113.5C 116.339,112.087 113.339,110.42 110.5,108.5C 107.167,106.833 103.833,105.167 100.5,103.5C 96.4734,101.487 92.4734,99.4867 88.5,97.5C 87.7095,96.5987 86.7095,95.9321 85.5,95.5C 85.7828,94.7109 86.2828,94.0442 87,93.5C 103.914,94.2111 120.247,94.5444 136,94.5C 136.333,93.8333 136.667,93.1667 137,92.5C 137.839,93.6241 139.006,94.2908 140.5,94.5C 145.505,94.3907 150.505,94.3907 155.5,94.5C 156.748,93.9598 157.915,93.2931 159,92.5C 159.333,93.1667 159.667,93.8333 160,94.5C 162.825,94.3946 165.658,94.3946 168.5,94.5 Z"/></g>
<g><path style="opacity:0.993" fill="#927fd4" d="M 196.5,95.5 C 199.243,97.071 201.577,99.2377 203.5,102C 203.167,102.333 202.833,102.667 202.5,103C 203.849,103.772 204.682,104.939 205,106.5C 205.667,105.833 206.333,105.167 207,104.5C 216.342,115.003 225.842,124.669 235.5,133.5C 235.5,137.833 235.5,142.167 235.5,146.5C 232.852,144.434 230.518,141.934 228.5,139C 225.553,138.888 224.22,137.388 224.5,134.5C 219.779,132.283 216.112,128.783 213.5,124C 209.814,122.323 207.48,119.99 206.5,117C 201.769,114.793 197.769,110.959 194.5,105.5C 193.06,104.048 191.394,103.048 189.5,102.5C 191.5,99.8333 193.833,97.5 196.5,95.5 Z"/></g>
<g><path style="opacity:1" fill="#6c4fd4" d="M 88.5,97.5 C 92.4734,99.4867 96.4734,101.487 100.5,103.5C 100.992,107.29 100.159,107.956 98,105.5C 97.5983,106.872 97.0983,108.205 96.5,109.5C 94.7256,110.187 93.0589,111.02 91.5,112C 94.1667,112.667 94.1667,113.333 91.5,114C 91.8333,114.333 92.1667,114.667 92.5,115C 90.8333,115.333 89.1667,115.667 87.5,116C 87.8333,116.333 88.1667,116.667 88.5,117C 85.0816,120.839 81.2482,124.339 77,127.5C 76.6667,128.833 76.3333,130.167 76,131.5C 74.9505,130.483 73.7839,130.316 72.5,131C 73.6039,132.131 73.2705,132.965 71.5,133.5C 70.7022,135.078 70.2022,136.744 70,138.5C 69.8508,135.721 69.0174,135.221 67.5,137C 68.6537,137.914 68.487,138.747 67,139.5C 66.6667,139.167 66.3333,138.833 66,138.5C 65.5,139.667 64.6667,140.5 63.5,141C 64.3402,142.666 63.8402,142.833 62,141.5C 59.8335,143.991 57.6669,146.491 55.5,149C 45.9863,153.923 36.3196,158.59 26.5,163C 25.7476,163.671 25.4142,164.504 25.5,165.5C 24.8333,165.833 24.1667,166.167 23.5,166.5C 22.5028,166.47 21.8361,166.97 21.5,168C 20.7101,171.356 19.7101,174.523 18.5,177.5C 18.5,174.167 18.5,170.833 18.5,167.5C 23.0791,162.627 27.7458,158.46 32.5,155C 32.1667,154.667 31.8333,154.333 31.5,154C 32.7659,153.691 33.9326,153.191 35,152.5C 42.4571,144.212 49.9571,136.045 57.5,128C 67.9474,118.726 78.2807,108.559 88.5,97.5 Z"/></g>
<g><path style="opacity:0.998" fill="#8d79d5" d="M 189.5,102.5 C 191.394,103.048 193.06,104.048 194.5,105.5C 197.769,110.959 201.769,114.793 206.5,117C 207.48,119.99 209.814,122.323 213.5,124C 216.112,128.783 219.779,132.283 224.5,134.5C 224.22,137.388 225.553,138.888 228.5,139C 230.518,141.934 232.852,144.434 235.5,146.5C 235.5,149.833 235.5,153.167 235.5,156.5C 234.761,156.631 234.094,156.464 233.5,156C 228.333,149.498 222.833,143.998 217,139.5C 206.354,128.353 195.52,117.353 184.5,106.5C 185.585,104.413 187.251,103.08 189.5,102.5 Z"/></g>
<g><path style="opacity:1" fill="#7459d5" d="M 100.5,103.5 C 103.833,105.167 107.167,106.833 110.5,108.5C 108.626,112.217 106.46,115.884 104,119.5C 93.6526,130.014 83.1526,140.348 72.5,150.5C 75.0125,151.728 77.0125,153.395 78.5,155.5C 74.1881,153.679 69.8547,151.846 65.5,150C 62.8333,149.333 60.1667,149.333 57.5,150C 46.7603,155.076 36.0936,160.243 25.5,165.5C 25.4142,164.504 25.7476,163.671 26.5,163C 36.3196,158.59 45.9863,153.923 55.5,149C 57.6669,146.491 59.8335,143.991 62,141.5C 63.8402,142.833 64.3402,142.666 63.5,141C 64.6667,140.5 65.5,139.667 66,138.5C 66.3333,138.833 66.6667,139.167 67,139.5C 68.487,138.747 68.6537,137.914 67.5,137C 69.0174,135.221 69.8508,135.721 70,138.5C 70.2022,136.744 70.7022,135.078 71.5,133.5C 73.2705,132.965 73.6039,132.131 72.5,131C 73.7839,130.316 74.9505,130.483 76,131.5C 76.3333,130.167 76.6667,128.833 77,127.5C 81.2482,124.339 85.0816,120.839 88.5,117C 88.1667,116.667 87.8333,116.333 87.5,116C 89.1667,115.667 90.8333,115.333 92.5,115C 92.1667,114.667 91.8333,114.333 91.5,114C 94.1667,113.333 94.1667,112.667 91.5,112C 93.0589,111.02 94.7256,110.187 96.5,109.5C 97.0983,108.205 97.5983,106.872 98,105.5C 100.159,107.956 100.992,107.29 100.5,103.5 Z"/></g>
<g><path style="opacity:1" fill="#7960d4" d="M 110.5,108.5 C 113.339,110.42 116.339,112.087 119.5,113.5C 110.196,123.992 99.6961,134.992 88,146.5C 87.6667,146.167 87.3333,145.833 87,145.5C 86.2276,146.849 85.0609,147.682 83.5,148C 84.3081,148.308 84.9747,148.808 85.5,149.5C 82.6103,150.85 80.9436,152.683 80.5,155C 85.5945,157.875 90.5945,160.708 95.5,163.5C 89.4017,161.616 83.735,158.949 78.5,155.5C 77.0125,153.395 75.0125,151.728 72.5,150.5C 83.1526,140.348 93.6526,130.014 104,119.5C 106.46,115.884 108.626,112.217 110.5,108.5 Z"/></g>
<g><path style="opacity:0.997" fill="#856fd4" d="M 184.5,106.5 C 195.52,117.353 206.354,128.353 217,139.5C 222.833,143.998 228.333,149.498 233.5,156C 234.094,156.464 234.761,156.631 235.5,156.5C 235.5,162.5 235.5,168.5 235.5,174.5C 225.494,166.001 216.16,156.834 207.5,147C 205.14,144.647 202.473,142.647 199.5,141C 199.833,140.667 200.167,140.333 200.5,140C 193.081,132.65 185.748,125.316 178.5,118C 177.255,117.209 175.922,116.709 174.5,116.5C 177.5,112.833 180.833,109.5 184.5,106.5 Z"/></g>
<g><path style="opacity:0.997" fill="#8068d4" d="M 119.5,113.5 C 121.5,114.5 123.5,115.5 125.5,116.5C 125.5,122.833 125.5,129.167 125.5,135.5C 123.146,136.013 121.146,137.179 119.5,139C 119.833,139.333 120.167,139.667 120.5,140C 111.554,147.782 103.22,155.949 95.5,164.5C 95.5,164.167 95.5,163.833 95.5,163.5C 90.5945,160.708 85.5945,157.875 80.5,155C 80.9436,152.683 82.6103,150.85 85.5,149.5C 84.9747,148.808 84.3081,148.308 83.5,148C 85.0609,147.682 86.2276,146.849 87,145.5C 87.3333,145.833 87.6667,146.167 88,146.5C 99.6961,134.992 110.196,123.992 119.5,113.5 Z"/></g>
<g><path style="opacity:0.992" fill="#7e66d4" d="M 174.5,116.5 C 175.922,116.709 177.255,117.209 178.5,118C 185.748,125.316 193.081,132.65 200.5,140C 200.167,140.333 199.833,140.667 199.5,141C 202.473,142.647 205.14,144.647 207.5,147C 216.16,156.834 225.494,166.001 235.5,174.5C 235.378,177.292 234.044,179.292 231.5,180.5C 228.772,178.058 225.438,175.558 221.5,173C 220.167,172.333 220.167,171.667 221.5,171C 204.353,154.353 187.353,137.52 170.5,120.5C 171.5,118.833 172.833,117.5 174.5,116.5 Z"/></g>
<g><path style="opacity:0.995" fill="#795fd5" d="M 170.5,120.5 C 187.353,137.52 204.353,154.353 221.5,171C 220.167,171.667 220.167,172.333 221.5,173C 225.438,175.558 228.772,178.058 231.5,180.5C 230.5,182.167 229.167,183.5 227.5,184.5C 223.542,182.205 219.875,179.538 216.5,176.5C 213.945,172.571 210.945,169.071 207.5,166C 206.234,165.691 205.067,165.191 204,164.5C 201.96,161.803 199.96,159.137 198,156.5C 197.667,157.167 197.333,157.833 197,158.5C 195.87,155.046 193.703,152.546 190.5,151C 190.833,150.667 191.167,150.333 191.5,150C 189.913,149.138 188.246,148.471 186.5,148C 186.833,147.667 187.167,147.333 187.5,147C 185.658,143.916 182.991,142.083 179.5,141.5C 179.649,140.448 179.483,139.448 179,138.5C 177.303,137.636 176.137,136.303 175.5,134.5C 171.562,132.639 168.562,130.472 166.5,128C 167.728,126.51 167.728,125.01 166.5,123.5C 167.833,122.5 169.167,121.5 170.5,120.5 Z"/></g>
<g><path style="opacity:0.998" fill="#7256d5" d="M 166.5,123.5 C 167.728,125.01 167.728,126.51 166.5,128C 168.562,130.472 171.562,132.639 175.5,134.5C 176.137,136.303 177.303,137.636 179,138.5C 179.483,139.448 179.649,140.448 179.5,141.5C 182.991,142.083 185.658,143.916 187.5,147C 187.167,147.333 186.833,147.667 186.5,148C 188.246,148.471 189.913,149.138 191.5,150C 191.167,150.333 190.833,150.667 190.5,151C 193.703,152.546 195.87,155.046 197,158.5C 197.333,157.833 197.667,157.167 198,156.5C 199.96,159.137 201.96,161.803 204,164.5C 205.067,165.191 206.234,165.691 207.5,166C 210.945,169.071 213.945,172.571 216.5,176.5C 219.875,179.538 223.542,182.205 227.5,184.5C 224.208,187.49 220.874,190.49 217.5,193.5C 217.013,192.527 216.513,191.527 216,190.5C 196.632,170.965 177.132,151.632 157.5,132.5C 160.167,129.167 163.167,126.167 166.5,123.5 Z"/></g>
<g><path style="opacity:0.995" fill="#6b4ed4" d="M 157.5,132.5 C 177.132,151.632 196.632,170.965 216,190.5C 216.513,191.527 217.013,192.527 217.5,193.5C 216.5,195.167 215.167,196.5 213.5,197.5C 193.496,177.823 173.829,158.49 154.5,139.5C 153.908,136.369 154.908,134.036 157.5,132.5 Z"/></g>
<g><path style="opacity:0.994" fill="#6647d5" d="M 154.5,139.5 C 173.829,158.49 193.496,177.823 213.5,197.5C 212.167,199.5 210.5,201.167 208.5,202.5C 196.179,189.869 183.513,176.869 170.5,163.5C 164.755,159.074 159.422,154.407 154.5,149.5C 154.5,146.167 154.5,142.833 154.5,139.5 Z"/></g>
<g><path style="opacity:0.997" fill="#8c77d5" d="M 125.5,135.5 C 126.232,144.815 126.566,154.148 126.5,163.5C 125.778,163.082 125.278,162.416 125,161.5C 121.983,164.184 119.317,167.184 117,170.5C 116.667,170.167 116.333,169.833 116,169.5C 114.684,170.974 113.684,172.641 113,174.5C 112.667,174.167 112.333,173.833 112,173.5C 110.691,175.976 108.858,177.976 106.5,179.5C 105.754,180.736 105.421,182.07 105.5,183.5C 104.114,178.263 102.614,172.929 101,167.5C 100.399,165.641 99.5659,165.308 98.5,166.5C 97.2905,166.068 96.2905,165.401 95.5,164.5C 103.22,155.949 111.554,147.782 120.5,140C 120.167,139.667 119.833,139.333 119.5,139C 121.146,137.179 123.146,136.013 125.5,135.5 Z"/></g>
<g><path style="opacity:1" fill="#fbfafe" d="M 78.5,155.5 C 83.735,158.949 89.4017,161.616 95.5,163.5C 95.5,163.833 95.5,164.167 95.5,164.5C 96.2905,165.401 97.2905,166.068 98.5,166.5C 102.276,178.604 105.276,190.938 107.5,203.5C 107.5,205.5 107.5,207.5 107.5,209.5C 100.153,217.353 93.3196,225.687 87,234.5C 85.4571,236.378 83.6238,237.878 81.5,239C 67.8333,239.667 54.1667,239.667 40.5,239C 32.2133,228.925 24.0466,218.758 16,208.5C 15.3333,205.167 15.3333,201.833 16,198.5C 19.1243,188.002 21.6243,177.335 23.5,166.5C 24.1667,166.167 24.8333,165.833 25.5,165.5C 36.0936,160.243 46.7603,155.076 57.5,150C 60.1667,149.333 62.8333,149.333 65.5,150C 69.8547,151.846 74.1881,153.679 78.5,155.5 Z"/></g>
<g><path style="opacity:0.998" fill="#6141d4" d="M 154.5,149.5 C 159.422,154.407 164.755,159.074 170.5,163.5C 183.513,176.869 196.179,189.869 208.5,202.5C 207.167,204.5 205.5,206.167 203.5,207.5C 191.804,194.952 179.47,182.119 166.5,169C 165.552,168.517 164.552,168.351 163.5,168.5C 163.649,167.448 163.483,166.448 163,165.5C 160.004,163.267 157.171,160.934 154.5,158.5C 154.5,155.5 154.5,152.5 154.5,149.5 Z"/></g>
<g><path style="opacity:1" fill="#775bd6" d="M 60.5,160.5 C 61.4959,160.414 62.3292,160.748 63,161.5C 63.1786,164.553 63.6786,167.553 64.5,170.5C 70.2527,171.96 75.4194,174.627 80,178.5C 82.1238,177.378 83.9571,175.878 85.5,174C 87.3185,173.217 88.6518,173.717 89.5,175.5C 86.9401,177.273 84.6068,179.273 82.5,181.5C 85.7567,187.043 87.2567,193.043 87,199.5C 90.1009,200.467 92.9343,201.8 95.5,203.5C 91.9302,203.909 88.2635,203.909 84.5,203.5C 84.5086,205.308 84.0086,206.975 83,208.5C 80.3248,212.005 77.4915,215.339 74.5,218.5C 76.0444,221.356 77.0444,224.356 77.5,227.5C 74.2856,226.472 72.4523,224.138 72,220.5C 71.4387,219.978 70.772,219.645 70,219.5C 63.8335,220.536 57.6668,220.703 51.5,220C 50.2135,222.022 49.2135,224.189 48.5,226.5C 47.675,227.386 46.675,227.719 45.5,227.5C 46.2024,224.422 47.2024,221.422 48.5,218.5C 43.9049,214.4 40.2382,209.567 37.5,204C 34.1745,203.828 30.8411,203.995 27.5,204.5C 27.281,203.325 27.6143,202.325 28.5,201.5C 31.0393,200.885 33.5393,200.218 36,199.5C 35.7118,193.186 37.2118,187.353 40.5,182C 39.346,179.513 37.5127,177.679 35,176.5C 34.2506,175.365 34.4173,174.365 35.5,173.5C 37.9124,175.099 40.4124,176.432 43,177.5C 47.8767,173.864 53.3767,171.364 59.5,170C 59.4588,166.881 59.7921,163.714 60.5,160.5 Z"/></g>
<g><path style="opacity:0.994" fill="#5c3ad5" d="M 154.5,158.5 C 157.171,160.934 160.004,163.267 163,165.5C 163.483,166.448 163.649,167.448 163.5,168.5C 164.552,168.351 165.552,168.517 166.5,169C 179.47,182.119 191.804,194.952 203.5,207.5C 201.54,209.156 199.54,210.823 197.5,212.5C 192.772,205.925 186.772,199.758 179.5,194C 170.584,184.94 162.25,176.107 154.5,167.5C 154.5,164.5 154.5,161.5 154.5,158.5 Z"/></g>
<g><path style="opacity:0.994" fill="#5734d5" d="M 154.5,167.5 C 162.25,176.107 170.584,184.94 179.5,194C 186.772,199.758 192.772,205.925 197.5,212.5C 195.5,215.167 193.167,217.5 190.5,219.5C 187.074,214.577 182.74,210.41 177.5,207C 177.833,206.667 178.167,206.333 178.5,206C 175.573,203.67 172.573,201.337 169.5,199C 170.258,197.636 169.758,196.469 168,195.5C 167.667,195.833 167.333,196.167 167,196.5C 166.5,195.333 165.667,194.5 164.5,194C 164.833,193.667 165.167,193.333 165.5,193C 163.796,190.453 161.463,188.953 158.5,188.5C 158.226,186.019 156.893,184.353 154.5,183.5C 154.5,178.167 154.5,172.833 154.5,167.5 Z"/></g>
<g><path style="opacity:1" fill="#f6f3fc" d="M 54.5,176.5 C 55.8333,176.5 57.1667,176.5 58.5,176.5C 58.5,180.167 58.5,183.833 58.5,187.5C 54.4195,186.456 50.7528,184.456 47.5,181.5C 49.5947,179.391 51.928,177.724 54.5,176.5 Z"/></g>
<g><path style="opacity:1" fill="#f7f5fc" d="M 64.5,176.5 C 68.717,176.11 72.0504,177.61 74.5,181C 72.1038,184.555 68.7705,186.722 64.5,187.5C 64.5,183.833 64.5,180.167 64.5,176.5 Z"/></g>
<g><path style="opacity:0.981" fill="#9785d5" d="M 126.5,163.5 C 126.833,187.842 126.5,212.176 125.5,236.5C 116.316,232.076 107.316,227.409 98.5,222.5C 101.915,218.424 104.915,214.091 107.5,209.5C 107.5,207.5 107.5,205.5 107.5,203.5C 108.29,204.609 108.79,205.942 109,207.5C 109.167,206.167 109.333,204.833 109.5,203.5C 107.848,196.892 106.514,190.225 105.5,183.5C 105.421,182.07 105.754,180.736 106.5,179.5C 108.858,177.976 110.691,175.976 112,173.5C 112.333,173.833 112.667,174.167 113,174.5C 113.684,172.641 114.684,170.974 116,169.5C 116.333,169.833 116.667,170.167 117,170.5C 119.317,167.184 121.983,164.184 125,161.5C 125.278,162.416 125.778,163.082 126.5,163.5 Z"/></g>
<g><path style="opacity:1" fill="#7b60d6" d="M 105.5,183.5 C 106.514,190.225 107.848,196.892 109.5,203.5C 109.333,204.833 109.167,206.167 109,207.5C 108.79,205.942 108.29,204.609 107.5,203.5C 105.276,190.938 102.276,178.604 98.5,166.5C 99.5659,165.308 100.399,165.641 101,167.5C 102.614,172.929 104.114,178.263 105.5,183.5 Z"/></g>
<g><path style="opacity:0.995" fill="#522dd5" d="M 154.5,183.5 C 156.893,184.353 158.226,186.019 158.5,188.5C 161.463,188.953 163.796,190.453 165.5,193C 165.167,193.333 164.833,193.667 164.5,194C 165.667,194.5 166.5,195.333 167,196.5C 167.333,196.167 167.667,195.833 168,195.5C 169.758,196.469 170.258,197.636 169.5,199C 172.573,201.337 175.573,203.67 178.5,206C 178.167,206.333 177.833,206.667 177.5,207C 182.74,210.41 187.074,214.577 190.5,219.5C 178.865,230.966 167.032,242.3 155,253.5C 154.5,230.169 154.333,206.836 154.5,183.5 Z"/></g>
<g><path style="opacity:1" fill="#f6f4fc" d="M 43.5,185.5 C 56.092,191.723 55.4254,195.723 41.5,197.5C 41.3316,193.342 41.9983,189.342 43.5,185.5 Z"/></g>
<g><path style="opacity:1" fill="#f6f4fc" d="M 77.5,185.5 C 79.2926,185.884 80.2926,187.05 80.5,189C 81.3479,191.77 81.6813,194.603 81.5,197.5C 77.7927,197.208 74.2927,196.208 71,194.5C 70.3333,193.5 70.3333,192.5 71,191.5C 73.6637,190.002 75.8304,188.002 77.5,185.5 Z"/></g>
<g><path style="opacity:1" fill="#f5f2fc" d="M 59.5,192.5 C 64.2411,192.161 65.5744,194.161 63.5,198.5C 60.8489,199.842 59.1823,199.008 58.5,196C 58.6483,194.744 58.9816,193.577 59.5,192.5 Z"/></g>
<g><path style="opacity:1" fill="#f5f2fc" d="M 51.5,200.5 C 53.4841,200.484 54.4841,201.484 54.5,203.5C 53.5483,206.695 52.215,209.695 50.5,212.5C 46.9232,210.091 44.2565,206.924 42.5,203C 45.6282,202.159 48.6282,201.325 51.5,200.5 Z"/></g>
<g><path style="opacity:1" fill="#f4f1fb" d="M 69.5,200.5 C 73.4229,200.76 77.0896,201.76 80.5,203.5C 73.4,215.75 69.7334,214.75 69.5,200.5 Z"/></g>
<g><path style="opacity:1" fill="#f4f2fc" d="M 61.5,204.5 C 64.2781,207.721 66.2781,211.388 67.5,215.5C 63.5,215.5 59.5,215.5 55.5,215.5C 56.2145,211.067 58.2145,207.4 61.5,204.5 Z"/></g>
<g><path style="opacity:0.986" fill="#775bd6" d="M 23.5,166.5 C 21.6243,177.335 19.1243,188.002 16,198.5C 15.3333,201.833 15.3333,205.167 16,208.5C 24.0466,218.758 32.2133,228.925 40.5,239C 54.1667,239.667 67.8333,239.667 81.5,239C 83.6238,237.878 85.4571,236.378 87,234.5C 93.3196,225.687 100.153,217.353 107.5,209.5C 104.915,214.091 101.915,218.424 98.5,222.5C 94.1663,227.671 89.9996,233.005 86,238.5C 84.5806,239.46 83.0806,240.293 81.5,241C 68.1667,241.667 54.8333,241.667 41.5,241C 40.1667,240.333 38.8333,239.667 37.5,239C 29.6667,229.167 21.8333,219.333 14,209.5C 13.3333,206.167 13.3333,202.833 14,199.5C 15.8219,192.215 17.3219,184.882 18.5,177.5C 19.7101,174.523 20.7101,171.356 21.5,168C 21.8361,166.97 22.5028,166.47 23.5,166.5 Z"/></g>
</svg>
