<?xml version="1.0" encoding="utf-8"?>
<!-- Generator: Adobe Illustrator 27.5.0, SVG Export Plug-In . SVG Version: 6.00 Build 0)  -->
<svg version="1.1" id="Capa_1" xmlns="http://www.w3.org/2000/svg" xmlns:xlink="http://www.w3.org/1999/xlink" x="0px" y="0px"
	 viewBox="0 0 425.197 425.196" style="enable-background:new 0 0 425.197 425.196;" xml:space="preserve">
<rect style="fill:url(#SVGID_1_);" width="425.197" height="425.196"/>
<g id="Paquete_de_vectores:_motivo_de_puntos_15">
</g>
<g id="Paquete_de_vectores:_motivo_de_puntos_15_1_">
</g>
<g id="Paquete_de_vectores:_motivo_de_puntos_03">
</g>
<g>
	<g>
		<g>
			
				<linearGradient id="SVGID_00000033358105834270826610000002601859504786230457_" gradientUnits="userSpaceOnUse" x1="165.0775" y1="330.0216" x2="212.8317" y2="304.5287">
				<stop  offset="0" style="stop-color:#30338C"/>
				<stop  offset="0.7415" style="stop-color:#6A65A7"/>
				<stop  offset="1" style="stop-color:#7A75B1"/>
			</linearGradient>
			<polygon style="fill:url(#SVGID_00000033358105834270826610000002601859504786230457_);" points="213.691,362.88 
				164.766,328.563 164.766,271.378 213.691,305.695 			"/>
			
				<linearGradient id="SVGID_00000021088814312219315530000003035679538538948751_" gradientUnits="userSpaceOnUse" x1="226.2623" y1="363.851" x2="226.2623" y2="315.5778">
				<stop  offset="0" style="stop-color:#9186BB"/>
				<stop  offset="1" style="stop-color:#C7C4E1"/>
			</linearGradient>
			<polygon style="fill:url(#SVGID_00000021088814312219315530000003035679538538948751_);" points="213.689,362.88 
				238.835,345.241 238.835,288.057 213.689,305.695 			"/>
			
				<linearGradient id="SVGID_00000091713210800267992300000010463512871696557486_" gradientUnits="userSpaceOnUse" x1="165.636" y1="280.5677" x2="236.1188" y2="278.9093">
				<stop  offset="0" style="stop-color:#786FAD"/>
				<stop  offset="1" style="stop-color:#B2B3D7"/>
			</linearGradient>
			<polygon style="fill:url(#SVGID_00000091713210800267992300000010463512871696557486_);" points="189.91,253.726 189.91,253.725 
				189.91,253.725 189.91,253.726 164.766,271.392 213.689,305.708 213.689,305.708 213.691,305.708 213.691,305.708 
				238.835,288.071 			"/>
		</g>
		<g>
			
				<linearGradient id="SVGID_00000013900514956638786250000008939128415460292000_" gradientUnits="userSpaceOnUse" x1="216.5567" y1="321.8146" x2="231.5496" y2="327.459">
				<stop  offset="0.0698" style="stop-color:#30338C"/>
				<stop  offset="0.4733" style="stop-color:#5C589F"/>
				<stop  offset="0.8093" style="stop-color:#726DAC"/>
				<stop  offset="1" style="stop-color:#7A75B1"/>
			</linearGradient>
			<polygon style="fill:url(#SVGID_00000013900514956638786250000008939128415460292000_);" points="217.394,346.386 
				235.133,333.942 235.133,304.552 217.394,316.996 			"/>
			<polygon style="fill:#47417D;" points="217.394,346.386 232.5,335.787 232.5,332.445 217.394,321.848 			"/>
			
				<linearGradient id="SVGID_00000067214889817855109040000018267535039942891189_" gradientUnits="userSpaceOnUse" x1="233.1758" y1="333.9567" x2="216.8892" y2="344.6821">
				<stop  offset="0.1253" style="stop-color:#30338C"/>
				<stop  offset="0.5047" style="stop-color:#5C589F"/>
				<stop  offset="0.8207" style="stop-color:#726DAC"/>
				<stop  offset="1" style="stop-color:#7A75B1"/>
			</linearGradient>
			<polygon style="fill:url(#SVGID_00000067214889817855109040000018267535039942891189_);" points="217.971,345.977 232.5,335.787 
				232.5,332.395 217.971,342.585 			"/>
			
				<linearGradient id="SVGID_00000089569033156264514320000017472858368382165893_" gradientUnits="userSpaceOnUse" x1="233.8164" y1="334.6847" x2="233.8164" y2="303.4494">
				<stop  offset="0.0698" style="stop-color:#30338C"/>
				<stop  offset="0.4733" style="stop-color:#5C589F"/>
				<stop  offset="0.8093" style="stop-color:#726DAC"/>
				<stop  offset="1" style="stop-color:#7A75B1"/>
			</linearGradient>
			<polygon style="fill:url(#SVGID_00000089569033156264514320000017472858368382165893_);" points="232.5,306.397 232.5,335.787 
				235.133,333.942 235.133,304.552 			"/>
			<g>
				<polygon style="fill:#002B64;" points="217.971,316.565 217.394,316.996 217.394,346.386 217.971,345.954 				"/>
				<polygon style="fill:#002B64;" points="217.394,317.701 235.133,305.271 235.133,304.552 217.394,316.983 				"/>
			</g>
		</g>
		<polygon style="opacity:0.8;fill:#47417D;" points="217.394,346.386 235.133,333.942 235.133,304.552 217.394,316.996 		"/>
		<g>
			<g>
				
					<linearGradient id="SVGID_00000131356991976956297910000006554692504236107142_" gradientUnits="userSpaceOnUse" x1="184.2948" y1="291.8954" x2="204.2137" y2="281.262">
					<stop  offset="0" style="stop-color:#30338C"/>
					<stop  offset="0.7415" style="stop-color:#6A65A7"/>
					<stop  offset="1" style="stop-color:#7A75B1"/>
				</linearGradient>
				<polygon style="fill:url(#SVGID_00000131356991976956297910000006554692504236107142_);" points="213.862,301.096 
					174.875,273.885 174.875,271.94 213.862,299.151 				"/>
				
					<linearGradient id="SVGID_00000052081249363253007120000018111866415260595854_" gradientUnits="userSpaceOnUse" x1="222.6382" y1="301.2807" x2="222.6382" y2="292.0818">
					<stop  offset="0" style="stop-color:#9186BB"/>
					<stop  offset="1" style="stop-color:#C7C4E1"/>
				</linearGradient>
				<polygon style="fill:url(#SVGID_00000052081249363253007120000018111866415260595854_);" points="213.862,301.096 
					231.414,288.783 231.414,286.837 213.862,299.151 				"/>
				
					<linearGradient id="SVGID_00000064313680107814733480000007799266097380694918_" gradientUnits="userSpaceOnUse" x1="175.5645" y1="280.0379" x2="229.317" y2="278.7731">
					<stop  offset="0" style="stop-color:#786FAD"/>
					<stop  offset="1" style="stop-color:#B2B3D7"/>
				</linearGradient>
				<polygon style="fill:url(#SVGID_00000064313680107814733480000007799266097380694918_);" points="192.427,259.617 
					192.427,259.617 192.427,259.617 192.427,259.617 174.875,271.949 213.862,299.16 213.862,299.161 213.862,299.161 
					213.862,299.16 231.414,286.848 				"/>
			</g>
			<g>
				<g>
					<polygon style="fill:#47417D;" points="194.643,263.535 194.643,263.535 194.643,263.535 194.643,263.535 180.203,273.669 
						181.32,274.448 181.32,274.448 181.32,274.448 181.32,274.448 195.76,264.315 					"/>
					<polygon style="fill:#47417D;" points="196.582,264.882 196.582,264.882 196.582,264.882 196.582,264.882 182.144,275.016 
						183.258,275.793 183.258,275.793 183.258,275.793 183.258,275.793 197.697,265.661 					"/>
					<polygon style="fill:#47417D;" points="198.523,266.255 198.523,266.255 198.523,266.255 198.523,266.255 184.082,276.388 
						185.197,277.168 185.197,277.168 185.197,277.168 185.197,277.168 199.636,267.035 					"/>
				</g>
				<g>
					<polygon style="fill:#47417D;" points="207.757,272.79 207.757,272.79 207.757,272.79 207.757,272.79 193.37,282.883 
						194.484,283.661 194.484,283.661 194.484,283.661 194.484,283.661 208.872,273.57 					"/>
					<polygon style="fill:#47417D;" points="209.695,274.156 209.695,274.156 209.695,274.156 209.695,274.156 195.295,284.24 
						196.411,285.018 196.411,285.018 196.411,285.018 196.411,285.018 210.814,274.934 					"/>
					<polygon style="fill:#47417D;" points="211.635,275.519 211.635,275.519 211.635,275.519 211.635,275.519 197.197,285.653 
						198.313,286.432 198.313,286.432 198.313,286.432 198.313,286.432 212.752,276.298 					"/>
				</g>
				<g>
					<polygon style="fill:#47417D;" points="221.338,282.259 221.338,282.259 221.338,282.259 221.338,282.259 206.898,292.391 
						208.014,293.17 208.014,293.17 208.014,293.17 208.014,293.17 222.455,283.038 					"/>
					<polygon style="fill:#47417D;" points="223.278,283.623 223.278,283.623 223.278,283.623 223.278,283.623 208.839,293.756 
						209.953,294.535 209.953,294.535 209.953,294.535 209.953,294.535 224.393,284.402 					"/>
					<polygon style="fill:#47417D;" points="225.218,284.988 225.218,284.988 225.218,284.988 225.218,284.988 210.779,295.121 
						211.894,295.899 211.894,295.899 211.894,295.899 211.894,295.899 226.332,285.765 					"/>
				</g>
			</g>
		</g>
		<g>
			<g>
				<polygon style="fill:#5EBBD8;" points="230.831,310.216 227.746,312.381 227.746,313.518 230.831,311.354 				"/>
				<polygon style="fill:#5EBBD8;" points="231.575,309.693 231.575,310.832 232.446,310.22 232.446,309.082 				"/>
				<polygon style="fill:#5EBBD8;" points="227.211,312.753 218.579,318.811 218.579,319.95 227.211,313.892 				"/>
				<polygon style="fill:#5EBBD8;" points="230.831,313.183 227.746,315.347 227.746,316.485 230.831,314.321 				"/>
				<polygon style="fill:#5EBBD8;" points="227.211,315.719 218.579,321.778 218.579,322.917 227.211,316.858 				"/>
				<polygon style="fill:#5EBBD8;" points="227.211,318.687 218.579,324.744 218.579,325.883 227.211,319.826 				"/>
			</g>
			<g>
				<polygon style="fill:#5EBBD8;" points="230.831,318.947 227.746,321.111 227.746,322.25 230.831,320.086 				"/>
				<polygon style="fill:#5EBBD8;" points="231.575,318.424 231.575,319.562 232.446,318.952 232.446,317.813 				"/>
				<polygon style="fill:#5EBBD8;" points="227.211,321.485 218.579,327.543 218.579,328.681 227.211,322.624 				"/>
				<polygon style="fill:#5EBBD8;" points="230.831,321.914 227.746,324.078 227.746,325.217 230.831,323.051 				"/>
				<polygon style="fill:#5EBBD8;" points="227.211,324.451 218.579,330.51 218.579,331.648 227.211,325.59 				"/>
				<polygon style="fill:#5EBBD8;" points="227.211,327.418 218.579,333.476 218.579,334.614 227.211,328.557 				"/>
			</g>
			<g>
				<polygon style="fill:#5EBBD8;" points="230.831,327.679 227.746,329.843 227.746,330.982 230.831,328.817 				"/>
				<polygon style="fill:#5EBBD8;" points="231.575,327.156 231.575,328.294 232.446,327.683 232.446,326.544 				"/>
				<polygon style="fill:#5EBBD8;" points="227.211,330.216 218.579,336.274 218.579,337.413 227.211,331.355 				"/>
				<polygon style="fill:#5EBBD8;" points="230.831,330.645 227.746,332.809 227.746,333.948 230.831,331.783 				"/>
				<polygon style="fill:#5EBBD8;" points="227.211,333.183 218.579,339.241 218.579,340.378 227.211,334.322 				"/>
				<polygon style="fill:#5EBBD8;" points="227.211,336.149 218.579,342.208 218.579,343.346 227.211,337.288 				"/>
			</g>
		</g>
	</g>
	<g>
		<g>
			<g>
				
					<linearGradient id="SVGID_00000011742156136420073570000001511896364886384561_" gradientUnits="userSpaceOnUse" x1="298.2321" y1="54.9818" x2="298.2733" y2="54.9818" gradientTransform="matrix(1 0.0052 -0.0052 1 -6.8994 21.207)">
					<stop  offset="0" style="stop-color:#30338C"/>
					<stop  offset="0.7415" style="stop-color:#6A65A7"/>
					<stop  offset="1" style="stop-color:#7A75B1"/>
				</linearGradient>
				<path style="fill:url(#SVGID_00000011742156136420073570000001511896364886384561_);" d="M291.047,77.729
					c0.013,0.005,0.021,0.012,0.033,0.02l0.008,0.001c-0.008-0.005-0.016-0.008-0.023-0.012
					C291.06,77.735,291.058,77.733,291.047,77.729z"/>
				
					<linearGradient id="SVGID_00000180328117581411146660000015097379277650874276_" gradientUnits="userSpaceOnUse" x1="292.5751" y1="54.0576" x2="292.7449" y2="54.0576" gradientTransform="matrix(1 0.0052 -0.0052 1 -6.8994 21.207)">
					<stop  offset="0" style="stop-color:#30338C"/>
					<stop  offset="0.7415" style="stop-color:#6A65A7"/>
					<stop  offset="1" style="stop-color:#7A75B1"/>
				</linearGradient>
				<path style="fill:url(#SVGID_00000180328117581411146660000015097379277650874276_);" d="M285.565,76.775
					c-0.058,0.006-0.112,0.015-0.17,0.023C285.452,76.79,285.507,76.781,285.565,76.775z"/>
				<g>
					
						<linearGradient id="SVGID_00000141419605557730085220000007192793678878389942_" gradientUnits="userSpaceOnUse" x1="312.0491" y1="45.085" x2="342.1654" y2="45.085" gradientTransform="matrix(1 0.0052 -0.0052 1 -6.8994 21.207)">
						<stop  offset="0" style="stop-color:#30338C"/>
						<stop  offset="0.7415" style="stop-color:#6A65A7"/>
						<stop  offset="1" style="stop-color:#7A75B1"/>
					</linearGradient>
					<path style="fill:url(#SVGID_00000141419605557730085220000007192793678878389942_);" d="M332.762,68.615l-16.813-11.612
						c-1.507-1.334-3.764-1.578-6.608,0.583c-1.421,1.082-3.05,3.139-4.398,5.115c3.938,2.83,7.484,5.437,10.827,7.707h-0.006
						c-0.186-0.095-0.382-0.175-0.581-0.247c2.89,1.052,4.374,4.458,4.351,9.283c0,0.174-0.01,0.351-0.016,0.525
						c1.525-3.792,4.117-7.76,7.133-9.853c0.273-0.19,0.54-0.356,0.804-0.509c0.017-0.011,0.037-0.022,0.054-0.031
						c0.252-0.145,0.5-0.269,0.744-0.379c0.027-0.013,0.055-0.027,0.082-0.039c0.238-0.104,0.469-0.192,0.697-0.267
						c0.029-0.009,0.063-0.021,0.094-0.032c0.223-0.07,0.441-0.123,0.656-0.165c0.03-0.006,0.065-0.012,0.095-0.018
						c0.213-0.039,0.42-0.061,0.625-0.072c0.028-0.001,0.055-0.002,0.085-0.003c0.204-0.006,0.403,0,0.595,0.021
						c0.024,0.003,0.044,0.006,0.068,0.009c0.195,0.023,0.385,0.06,0.569,0.112c0.012,0.004,0.029,0.01,0.044,0.015
						c0.19,0.055,0.37,0.124,0.545,0.207c0.006,0.002,0.01,0.004,0.015,0.006c0.734,0.356,1.336,0.956,1.776,1.762
						c0,0,0.002,0.003,0.002,0.005c0.108,0.199,0.208,0.412,0.295,0.636c0.001,0.005,0.003,0.01,0.005,0.015
						c0.09,0.223,0.168,0.459,0.232,0.703c0.002,0.008,0.004,0.014,0.006,0.02c0.066,0.247,0.121,0.506,0.164,0.775
						c0,0.005,0.002,0.011,0.002,0.017c0.044,0.271,0.077,0.552,0.098,0.846c0,0,0,0.002,0,0.004
						C334.959,71.3,334.133,69.483,332.762,68.615z"/>
					
						<linearGradient id="SVGID_00000137113288018597134300000003353037100303187377_" gradientUnits="userSpaceOnUse" x1="318.8679" y1="47.022" x2="319.7637" y2="47.022" gradientTransform="matrix(1 0.0052 -0.0052 1 -6.8994 21.207)">
						<stop  offset="0" style="stop-color:#30338C"/>
						<stop  offset="0.7415" style="stop-color:#6A65A7"/>
						<stop  offset="1" style="stop-color:#7A75B1"/>
					</linearGradient>
					<path style="fill:url(#SVGID_00000137113288018597134300000003353037100303187377_);" d="M311.724,69.943
						c0.011,0,0.023-0.005,0.035-0.005c0.296-0.052,0.581-0.082,0.861-0.102C312.33,69.856,312.031,69.89,311.724,69.943z"/>
					
						<linearGradient id="SVGID_00000070113654206347950110000012046110507731923107_" gradientUnits="userSpaceOnUse" x1="320.7628" y1="47.1029" x2="322.2398" y2="47.1029" gradientTransform="matrix(1 0.0052 -0.0052 1 -6.8994 21.207)">
						<stop  offset="0" style="stop-color:#30338C"/>
						<stop  offset="0.7415" style="stop-color:#6A65A7"/>
						<stop  offset="1" style="stop-color:#7A75B1"/>
					</linearGradient>
					<path style="fill:url(#SVGID_00000070113654206347950110000012046110507731923107_);" d="M315.095,70.129
						c-0.459-0.159-0.948-0.257-1.475-0.294C314.147,69.873,314.636,69.972,315.095,70.129z"/>
					
						<linearGradient id="SVGID_00000180339726139533631110000000053950005948141465_" gradientUnits="userSpaceOnUse" x1="319.8819" y1="46.9507" x2="320.6778" y2="46.9507" gradientTransform="matrix(1 0.0052 -0.0052 1 -6.8994 21.207)">
						<stop  offset="0" style="stop-color:#30338C"/>
						<stop  offset="0.7415" style="stop-color:#6A65A7"/>
						<stop  offset="1" style="stop-color:#7A75B1"/>
					</linearGradient>
					<path style="fill:url(#SVGID_00000180339726139533631110000000053950005948141465_);" d="M312.738,69.828
						c0.273-0.014,0.54-0.016,0.796,0C313.276,69.812,313.012,69.814,312.738,69.828z"/>
				</g>
				
					<linearGradient id="SVGID_00000122717516693636534350000014105369379829016481_" gradientUnits="userSpaceOnUse" x1="294.64" y1="53.9641" x2="294.8001" y2="53.9641" gradientTransform="matrix(1 0.0052 -0.0052 1 -6.8994 21.207)">
					<stop  offset="0" style="stop-color:#30338C"/>
					<stop  offset="0.7415" style="stop-color:#6A65A7"/>
					<stop  offset="1" style="stop-color:#7A75B1"/>
				</linearGradient>
				<path style="fill:url(#SVGID_00000122717516693636534350000014105369379829016481_);" d="M287.62,76.709
					c-0.054-0.003-0.104-0.007-0.16-0.011C287.516,76.702,287.566,76.706,287.62,76.709z"/>
			</g>
			<g>
				
					<linearGradient id="SVGID_00000044135468733866457400000012014078718710136450_" gradientUnits="userSpaceOnUse" x1="266.489" y1="89.8886" x2="266.9037" y2="89.8886" gradientTransform="matrix(1 0.0052 -0.0052 1 -6.8994 21.207)">
					<stop  offset="0" style="stop-color:#30338C"/>
					<stop  offset="0.7415" style="stop-color:#6A65A7"/>
					<stop  offset="1" style="stop-color:#7A75B1"/>
				</linearGradient>
				<path style="fill:url(#SVGID_00000044135468733866457400000012014078718710136450_);" d="M259.53,112.658
					c0-0.017,0.004-0.035,0.006-0.051l-0.413-0.299C259.26,112.418,259.397,112.532,259.53,112.658z"/>
				
					<linearGradient id="SVGID_00000117660550170989561520000013526949785712505755_" gradientUnits="userSpaceOnUse" x1="226.7372" y1="98.6412" x2="266.2831" y2="98.6412" gradientTransform="matrix(1 0.0052 -0.0052 1 -6.8994 21.207)">
					<stop  offset="0" style="stop-color:#30338C"/>
					<stop  offset="0.7415" style="stop-color:#6A65A7"/>
					<stop  offset="1" style="stop-color:#7A75B1"/>
				</linearGradient>
				<path style="fill:url(#SVGID_00000117660550170989561520000013526949785712505755_);" d="M236.592,137.437
					c0.035-6.838,5.639-19.026,12.871-24.042c3.861-2.679,7.189-2.859,9.455-1.235l-16.675-12.032c0,0-0.75-0.611-1.024-0.775
					c-0.252-0.148-1.066-0.475-1.066-0.475c-2.139-0.699-4.888-0.158-7.977,1.986c-7.232,5.016-12.838,17.205-12.871,24.042
					c-0.021,3.444,1.345,6.453,3.585,8.015l0,0l0.028,0.022c0.01,0.006,0.02,0.013,0.028,0.019l15.452,10.7
					C237.238,142.026,236.577,139.838,236.592,137.437z"/>
			</g>
			
				<linearGradient id="SVGID_00000102528861566609423960000012435255489915366302_" gradientUnits="userSpaceOnUse" x1="251.3102" y1="118.1273" x2="318.7851" y2="53.586" gradientTransform="matrix(1 0.0052 -0.0052 1 -6.8994 21.207)">
				<stop  offset="0" style="stop-color:#827DB6"/>
				<stop  offset="1" style="stop-color:#B2B3D7"/>
			</linearGradient>
			<path style="fill:url(#SVGID_00000102528861566609423960000012435255489915366302_);" d="M335.031,74.572
				c0.025-5.322-3.563-7.798-8.381-4.456c-3.016,2.093-5.607,6.061-7.133,9.853c0.006-0.175,0.016-0.352,0.016-0.525
				c0.043-8.521-4.615-12.637-13.414-7.133c-4.248,2.656-7.74,7.892-10.228,13.076c-1.688-8.499-8.758-11.702-17.839-5.405
				c-9.751,6.766-17.459,22.537-18.522,32.677c-2.251-2.141-5.845-2.194-10.067,0.737c-7.232,5.016-12.836,17.204-12.871,24.042
				c-0.033,6.165,4.357,10.943,10.29,8.5l80.323-55.726l0.21-0.146C331.872,86.54,335.002,79.994,335.031,74.572z"/>
			
				<linearGradient id="SVGID_00000006673070579063684210000009230435395123573933_" gradientUnits="userSpaceOnUse" x1="287.2449" y1="48.5856" x2="322.916" y2="48.5856" gradientTransform="matrix(1 0.0052 -0.0052 1 -6.8994 21.207)">
				<stop  offset="0" style="stop-color:#30338C"/>
				<stop  offset="0.7415" style="stop-color:#6A65A7"/>
				<stop  offset="1" style="stop-color:#7A75B1"/>
			</linearGradient>
			<path style="fill:url(#SVGID_00000006673070579063684210000009230435395123573933_);" d="M302.227,60.757
				c-2.251-1.596-5.475-3.408-6.875-3.41c-1.908-0.001-4.124,0.761-6.534,2.432c-3.349,2.323-6.368,6.088-8.718,10.204
				c4.621,3.326,10.228,7.382,10.228,7.382c-0.009-0.003-0.02-0.005-0.029-0.007c0.256,0.11,0.503,0.232,0.742,0.369
				c0.01,0.005,0.019,0.007,0.024,0.012c0.012,0.004,0.023,0.011,0.024,0.012h-0.001c0.034,0.019,0.067,0.041,0.101,0.061
				c0.476,0.283,0.925,0.617,1.342,1c0.043,0.042,0.09,0.083,0.134,0.125c0.201,0.194,0.4,0.396,0.586,0.613
				c0,0.002,0.004,0.003,0.006,0.004c0.186,0.219,0.363,0.453,0.535,0.696c0.039,0.054,0.08,0.11,0.118,0.168
				c0.166,0.242,0.326,0.492,0.477,0.756c0.002,0.004,0.004,0.006,0.006,0.01c0.15,0.267,0.287,0.547,0.424,0.835
				c0.031,0.07,0.063,0.14,0.096,0.212c0.127,0.289,0.25,0.585,0.36,0.895c0,0.004,0.004,0.006,0.004,0.009
				c0.112,0.311,0.212,0.638,0.304,0.969c0.024,0.082,0.047,0.164,0.068,0.247c0.088,0.337,0.174,0.681,0.243,1.036
				c2.487-5.184,5.979-10.42,10.228-13.076c0.078-0.054,0.154-0.098,0.231-0.138c4.046-2.476,7.206-2.892,9.413-1.765h0.006
				C311.674,67.626,307.28,64.344,302.227,60.757z"/>
			
				<linearGradient id="SVGID_00000032616787083140039680000003373301044985328554_" gradientUnits="userSpaceOnUse" x1="249.5462" y1="65.8311" x2="297.5115" y2="65.8311" gradientTransform="matrix(1 0.0052 -0.0052 1 -6.8994 21.207)">
				<stop  offset="0" style="stop-color:#30338C"/>
				<stop  offset="0.7415" style="stop-color:#6A65A7"/>
				<stop  offset="1" style="stop-color:#7A75B1"/>
			</linearGradient>
			<path style="fill:url(#SVGID_00000032616787083140039680000003373301044985328554_);" d="M278.053,79.981
				c2.253-1.561,4.378-2.536,6.33-2.994c0,0,2.441-0.645,5.945,0.378c0,0-14.444-10.451-16.072-11.551
				c-3.267-2.207-7.969-2.138-13.41,1.638c-9.754,6.766-17.541,22.536-18.603,32.677l17.298,12.431
				C260.644,102.415,268.334,86.725,278.053,79.981z"/>
		</g>
		<path style="opacity:0.39;fill:#FFFFFF;" d="M273.244,84.188c-7.389,7.807-12.835,20.069-13.714,28.469
			c-2.251-2.141-5.845-2.194-10.067,0.737c-7.232,5.016-12.836,17.204-12.871,24.042c-0.033,6.165,4.357,10.943,10.29,8.5
			l57.255-39.721L273.244,84.188z"/>
	</g>
	<g>
		<g>
			
				<linearGradient id="SVGID_00000026154418767612452910000009640999707252018324_" gradientUnits="userSpaceOnUse" x1="220.104" y1="257.7959" x2="247.7381" y2="243.0439">
				<stop  offset="0" style="stop-color:#30338C"/>
				<stop  offset="0.7415" style="stop-color:#6A65A7"/>
				<stop  offset="1" style="stop-color:#7A75B1"/>
			</linearGradient>
			<polygon style="fill:url(#SVGID_00000026154418767612452910000009640999707252018324_);" points="259.727,271.445 
				208.433,235.426 208.433,229.225 259.727,265.244 			"/>
			
				<linearGradient id="SVGID_00000054248640614132712120000003655405923724239507_" gradientUnits="userSpaceOnUse" x1="285.3745" y1="271.993" x2="285.3745" y2="244.7542">
				<stop  offset="0" style="stop-color:#9186BB"/>
				<stop  offset="1" style="stop-color:#C7C4E1"/>
			</linearGradient>
			<polygon style="fill:url(#SVGID_00000054248640614132712120000003655405923724239507_);" points="259.727,271.445 
				311.022,235.462 311.022,229.225 259.727,265.208 			"/>
			
				<linearGradient id="SVGID_00000016071376408098694330000013343650305106071738_" gradientUnits="userSpaceOnUse" x1="209.3711" y1="230.4097" x2="307.5133" y2="228.1005">
				<stop  offset="0" style="stop-color:#786FAD"/>
				<stop  offset="1" style="stop-color:#B2B3D7"/>
			</linearGradient>
			<polygon style="fill:url(#SVGID_00000016071376408098694330000013343650305106071738_);" points="259.73,193.212 259.73,193.212 
				259.727,193.212 259.727,193.212 208.433,229.254 259.727,265.237 259.727,265.238 259.73,265.238 259.73,265.237 
				311.022,229.254 			"/>
			<polygon style="opacity:0.8;fill:#3A3469;" points="259.73,198.257 259.73,198.257 259.727,198.257 259.727,198.257 
				215.618,229.25 259.727,260.191 259.727,260.193 259.73,260.193 259.73,260.191 303.838,229.25 			"/>
			<g>
				
					<polygon style="fill:none;stroke:#5EBBD8;stroke-width:0.7532;stroke-linecap:round;stroke-linejoin:round;stroke-miterlimit:10;" points="
					259.278,205.863 259.278,205.862 259.278,205.862 259.278,205.863 225.29,229.744 259.278,253.585 259.278,253.585 
					259.278,253.585 259.278,253.585 293.268,229.744 				"/>
				
					<polygon style="fill:none;stroke:#5EBBD8;stroke-width:0.7532;stroke-linecap:round;stroke-linejoin:round;stroke-miterlimit:10;" points="
					259.278,212.74 259.278,212.74 259.278,212.74 259.278,212.74 235.087,229.738 259.278,246.708 259.278,246.708 
					259.278,246.708 259.278,246.708 283.471,229.738 				"/>
				
					<polygon style="fill:none;stroke:#5EBBD8;stroke-width:0.7532;stroke-linecap:round;stroke-linejoin:round;stroke-miterlimit:10;" points="
					259.278,221.621 259.278,221.621 259.278,221.621 259.278,221.621 247.739,229.731 259.278,237.827 259.278,237.827 
					259.278,237.827 259.278,237.827 270.819,229.731 				"/>
			</g>
		</g>
		<g>
			<path style="fill:#C3C5CA;" d="M294.693,226.357c-8.652-0.292-23.301,4.979-33.414,12.071
				c-10.109,7.092-8.929,12.665-1.874,12.902c6.896,0.233,23.076-4.94,33.184-12.033
				C302.701,232.205,302.75,226.628,294.693,226.357z"/>
			<g>
				<g>
					
						<linearGradient id="SVGID_00000140713089562103180370000002734248485031361420_" gradientUnits="userSpaceOnUse" x1="240.5528" y1="233.4944" x2="265.0779" y2="187.1101">
						<stop  offset="0" style="stop-color:#30338C"/>
						<stop  offset="0.7415" style="stop-color:#6A65A7"/>
						<stop  offset="1" style="stop-color:#7A75B1"/>
					</linearGradient>
					<path style="fill:url(#SVGID_00000140713089562103180370000002734248485031361420_);" d="M246.181,230.973
						c0-9.597,7.778-26.746,17.89-33.839c5.32-3.729,9.935-4.063,13.118-1.913l-11.612-8.229c-0.119-0.09-0.239-0.178-0.367-0.261
						l0,0c-3.182-2.107-7.774-1.756-13.062,1.95c-10.11,7.094-17.888,24.243-17.888,33.839c0,4.914,1.883,9.083,5.035,11.133
						l11.458,8.126c0.026,0.018,0.052,0.034,0.075,0.052C247.916,239.698,246.181,235.681,246.181,230.973z"/>
					
						<linearGradient id="SVGID_00000141437792876890198050000001516615637749216439_" gradientUnits="userSpaceOnUse" x1="275.5464" y1="226.5944" x2="251.9097" y2="210.0664">
						<stop  offset="0" style="stop-color:#C7C4E1"/>
						<stop  offset="1" style="stop-color:#7768A8"/>
					</linearGradient>
					<path style="fill:url(#SVGID_00000141437792876890198050000001516615637749216439_);" d="M281.771,206.43
						c0,12.045-7.839,27.02-17.953,34.113c-10.109,7.093-17.637,0.252-17.637-9.569c0-9.597,7.778-26.746,17.89-33.839
						C274.182,190.042,281.771,195.217,281.771,206.43z"/>
					
						<linearGradient id="SVGID_00000119100128477683742190000008820442543267498922_" gradientUnits="userSpaceOnUse" x1="255.1276" y1="213.0642" x2="273.2545" y2="224.2602">
						<stop  offset="0" style="stop-color:#30338C"/>
						<stop  offset="0.7415" style="stop-color:#6A65A7"/>
						<stop  offset="1" style="stop-color:#7A75B1"/>
					</linearGradient>
					<path style="fill:url(#SVGID_00000119100128477683742190000008820442543267498922_);" d="M278.482,208.718
						c0,9.799-6.376,21.979-14.597,27.747c-8.228,5.768-14.35,0.203-14.35-7.783c0-7.806,6.328-21.753,14.553-27.524
						C272.313,195.389,278.482,199.598,278.482,208.718z"/>
				</g>
				<g>
					<path style="fill:#594E83;" d="M270.414,194.155l-12.018-8.431c-0.603,0.137-1.22,0.328-1.856,0.57l12.004,8.421
						C269.186,194.476,269.809,194.289,270.414,194.155z"/>
					<path style="fill:#594E83;" d="M250.295,190.116l11.983,8.406c0.416-0.35,0.841-0.666,1.268-0.98l-11.983-8.407
						C251.135,189.454,250.709,189.764,250.295,190.116z"/>
					<path style="fill:#594E83;" d="M245.58,195.016l11.973,8.396c0.324-0.4,0.645-0.8,0.98-1.183l-11.972-8.397
						C246.232,194.216,245.904,194.615,245.58,195.016z"/>
					<path style="fill:#594E83;" d="M241.725,200.514l11.961,8.389c0.27-0.436,0.542-0.865,0.822-1.293l-11.963-8.393
						C242.266,199.645,241.993,200.076,241.725,200.514z"/>
					<path style="fill:#594E83;" d="M238.545,206.487l11.954,8.386c0.216-0.468,0.437-0.937,0.669-1.403l-11.958-8.385
						C238.98,205.55,238.762,206.019,238.545,206.487z"/>
					<path style="fill:#594E83;" d="M236.032,212.927l11.942,8.379c0.162-0.503,0.328-1.004,0.505-1.514l-11.946-8.382
						C236.351,211.921,236.19,212.423,236.032,212.927z"/>
					<path style="fill:#594E83;" d="M234.429,220.01l11.935,8.37c0.064-0.553,0.142-1.114,0.245-1.697l-11.936-8.374
						C234.568,218.894,234.492,219.456,234.429,220.01z"/>
					<path style="fill:#594E83;" d="M235.529,228.985l11.859,8.321c-0.318-0.751-0.56-1.558-0.757-2.401l-11.896-8.346
						C234.941,227.414,235.199,228.229,235.529,228.985z"/>
				</g>
			</g>
		</g>
	</g>
	<g>
		
			<linearGradient id="SVGID_00000021097237576743162260000015386507902086361731_" gradientUnits="userSpaceOnUse" x1="288.6868" y1="194.148" x2="332.9247" y2="170.5323">
			<stop  offset="0" style="stop-color:#30338C"/>
			<stop  offset="0.7415" style="stop-color:#6A65A7"/>
			<stop  offset="1" style="stop-color:#7A75B1"/>
		</linearGradient>
		<polygon style="fill:url(#SVGID_00000021097237576743162260000015386507902086361731_);" points="326.452,228.008 
			295.667,206.413 295.667,136.401 326.452,157.996 		"/>
		
			<linearGradient id="SVGID_00000178915606189986604170000014500578673083739815_" gradientUnits="userSpaceOnUse" x1="341.8438" y1="229.1961" x2="341.8438" y2="170.0954">
			<stop  offset="0" style="stop-color:#9186BB"/>
			<stop  offset="1" style="stop-color:#C7C4E1"/>
		</linearGradient>
		<polygon style="fill:url(#SVGID_00000178915606189986604170000014500578673083739815_);" points="326.452,228.008 
			357.235,206.413 357.235,136.401 326.452,157.996 		"/>
		
			<linearGradient id="SVGID_00000040549332654204627370000007414742830391942335_" gradientUnits="userSpaceOnUse" x1="296.2302" y1="137.1125" x2="355.1294" y2="135.7266">
			<stop  offset="0" style="stop-color:#786FAD"/>
			<stop  offset="1" style="stop-color:#B2B3D7"/>
		</linearGradient>
		<polygon style="fill:url(#SVGID_00000040549332654204627370000007414742830391942335_);" points="326.452,114.789 
			326.452,114.789 326.452,114.789 326.452,114.789 295.667,136.419 326.452,158.013 326.452,158.014 326.452,158.014 
			326.452,158.013 357.235,136.419 		"/>
		<g>
			<polygon style="fill:#47417D;" points="328.994,164.229 357.235,144.417 357.235,141.171 328.994,160.982 			"/>
			<polygon style="fill:#47417D;" points="328.994,172.564 357.235,152.753 357.235,149.506 328.994,169.317 			"/>
			<polygon style="fill:#47417D;" points="328.994,180.898 357.235,161.086 357.235,157.84 328.994,177.652 			"/>
			<polygon style="fill:#47417D;" points="328.994,189.233 357.235,169.421 357.235,166.174 328.994,185.987 			"/>
			<polygon style="fill:#47417D;" points="328.994,197.568 357.235,177.756 357.235,174.51 328.994,194.321 			"/>
			<polygon style="fill:#47417D;" points="328.994,205.902 357.235,186.09 357.235,182.844 328.994,202.655 			"/>
		</g>
		<g>
			
				<linearGradient id="SVGID_00000088096895114043708610000008787834904984466315_" gradientUnits="userSpaceOnUse" x1="310.2873" y1="146.821" x2="321.5712" y2="140.7972">
				<stop  offset="0" style="stop-color:#30338C"/>
				<stop  offset="0.7415" style="stop-color:#6A65A7"/>
				<stop  offset="1" style="stop-color:#7A75B1"/>
			</linearGradient>
			<polygon style="fill:url(#SVGID_00000088096895114043708610000008787834904984466315_);" points="326.452,152.385 
				305.536,137.714 305.536,135.164 326.452,149.835 			"/>
			
				<linearGradient id="SVGID_00000134928308925148655780000011541408207751224994_" gradientUnits="userSpaceOnUse" x1="336.9092" y1="152.6087" x2="336.9092" y2="141.498">
				<stop  offset="0" style="stop-color:#9186BB"/>
				<stop  offset="1" style="stop-color:#C7C4E1"/>
			</linearGradient>
			<polygon style="fill:url(#SVGID_00000134928308925148655780000011541408207751224994_);" points="326.452,152.385 
				347.366,137.714 347.366,135.164 326.452,149.835 			"/>
			
				<linearGradient id="SVGID_00000048497399916998884610000003405696057211913118_" gradientUnits="userSpaceOnUse" x1="305.9189" y1="135.6465" x2="345.9354" y2="134.7049">
				<stop  offset="0" style="stop-color:#9186BB"/>
				<stop  offset="1" style="stop-color:#C7C4E1"/>
			</linearGradient>
			<polygon style="fill:url(#SVGID_00000048497399916998884610000003405696057211913118_);" points="326.452,120.481 
				326.452,120.48 326.452,120.48 326.452,120.481 305.536,135.176 326.452,149.846 326.452,149.846 326.452,149.846 
				326.452,149.846 347.366,135.176 			"/>
		</g>
		<g>
			<polygon style="fill:#47417D;" points="327.314,127.673 327.314,127.673 327.313,127.673 327.313,127.673 315.009,136.319 
				316.292,137.226 316.292,137.226 316.292,137.226 316.292,137.226 328.595,128.594 			"/>
			<polygon style="fill:#47417D;" points="329.638,129.333 329.638,129.331 329.638,129.331 329.638,129.333 317.334,137.978 
				318.615,138.884 318.615,138.884 318.615,138.884 318.615,138.884 330.921,130.253 			"/>
			<polygon style="fill:#47417D;" points="331.964,130.992 331.964,130.991 331.964,130.991 331.964,130.992 319.658,139.638 
				320.942,140.543 320.942,140.544 320.942,140.544 320.942,140.543 333.246,131.912 			"/>
			<polygon style="fill:#47417D;" points="334.288,132.649 334.288,132.649 334.288,132.649 334.288,132.649 321.985,141.297 
				323.266,142.202 323.266,142.203 323.266,142.203 323.266,142.202 335.571,133.571 			"/>
			<polygon style="fill:#47417D;" points="336.614,134.309 336.614,134.309 336.611,134.309 336.611,134.309 324.31,142.955 
				325.59,143.86 325.59,143.86 325.59,143.86 325.59,143.86 337.897,135.229 			"/>
		</g>
	</g>
	<g>
		
			<linearGradient id="SVGID_00000122696770814926382090000018064901757796131494_" gradientUnits="userSpaceOnUse" x1="277.137" y1="314.1297" x2="316.1543" y2="293.3009">
			<stop  offset="0" style="stop-color:#30338C"/>
			<stop  offset="0.0651" style="stop-color:#464494"/>
			<stop  offset="0.1723" style="stop-color:#5B579F"/>
			<stop  offset="0.2944" style="stop-color:#6965A7"/>
			<stop  offset="0.4379" style="stop-color:#736EAD"/>
			<stop  offset="0.6232" style="stop-color:#7874B0"/>
			<stop  offset="1" style="stop-color:#7A75B1"/>
		</linearGradient>
		<path style="fill:url(#SVGID_00000122696770814926382090000018064901757796131494_);" d="M298.657,348.845
			c0,0-3.998-1.631-3.998-2.748c0-2.985,0-82.972,0-84.828c0-1.795,0.552-2.991,0.552-2.991l3.446,1.884V348.845z"/>
		
			<linearGradient id="SVGID_00000146460015372096635000000000563333447462568373_" gradientUnits="userSpaceOnUse" x1="314.7754" y1="350.2887" x2="314.7754" y2="278.4719">
			<stop  offset="0" style="stop-color:#9186BB"/>
			<stop  offset="1" style="stop-color:#C7C4E1"/>
		</linearGradient>
		<polygon style="fill:url(#SVGID_00000146460015372096635000000000563333447462568373_);" points="298.657,348.845 
			330.894,326.212 330.894,237.528 298.657,260.162 		"/>
		<g>
			<polygon style="fill:#594E83;" points="298.657,343.162 330.894,320.528 330.894,243.21 298.657,265.845 			"/>
			<polygon style="fill:#594E83;" points="298.657,340.169 330.894,317.535 330.894,246.204 298.657,268.837 			"/>
		</g>
		
			<linearGradient id="SVGID_00000034808261773413922490000003056910380076932244_" gradientUnits="userSpaceOnUse" x1="295.3015" y1="248.4711" x2="329.9041" y2="247.6569">
			<stop  offset="0" style="stop-color:#B2B3D7"/>
			<stop  offset="1" style="stop-color:#786FAD"/>
		</linearGradient>
		<path style="fill:url(#SVGID_00000034808261773413922490000003056910380076932244_);" d="M325.667,236.236
			c-7.07,4.946-25.577,17.943-28.512,19.996c-1.329,0.932-1.944,2.046-1.944,2.046l3.446,1.888l0,0l0,0l0,0l32.236-22.633
			C330.894,237.533,327.192,235.169,325.667,236.236z"/>
		<g>
			<polygon style="fill:#594E83;" points="295.703,269.522 297.614,270.863 297.614,277.9 295.703,276.56 			"/>
			<polygon style="fill:#594E83;" points="295.703,278.507 297.614,279.846 297.614,297.294 295.703,295.954 			"/>
		</g>
		<g>
			<path style="fill:#47417D;" d="M298.142,256.375c-0.228,0.147-0.064,0.04-0.272,0.187c-0.333,0.237-0.809,1.02,0.068,1.634
				c1.185,0.831,2.132,0.156,2.36,0.003c0.451-0.302,0.223-0.16,0.223-0.16s1.081-0.773-0.205-1.663
				C299.471,255.791,298.643,256.051,298.142,256.375z"/>
			<path style="fill:#47417D;" d="M301.825,254.597c-0.127,0.082-0.034,0.023-0.151,0.104c-0.184,0.131-0.451,0.569,0.039,0.912
				c0.66,0.463,1.19,0.086,1.316,0.001c0.25-0.169,0.124-0.088,0.124-0.088s0.603-0.432-0.116-0.928
				C302.568,254.271,302.105,254.417,301.825,254.597z"/>
		</g>
		<polygon style="fill:#47417D;" points="309.596,339.368 319.954,332.163 319.954,329.838 309.596,337.043 		"/>
		<polygon style="fill:#47417D;" points="306.567,258.795 322.984,247.332 322.984,245.006 306.567,256.47 		"/>
		<polygon style="opacity:0.39;fill:#FFFFFF;" points="298.657,302.197 298.657,340.169 325.733,321.159 		"/>
	</g>
	<g>
		<g>
			<g>
				
					<polygon style="fill:none;stroke:#5EBBD8;stroke-width:0.5514;stroke-linecap:round;stroke-linejoin:round;stroke-miterlimit:10;" points="
					74.147,232.143 74.147,232.143 74.146,232.143 74.146,232.143 49.264,249.625 74.146,267.08 74.146,267.08 74.147,267.08 
					74.147,267.08 99.024,249.625 				"/>
				
					<polygon style="fill:none;stroke:#5EBBD8;stroke-width:0.5514;stroke-linecap:round;stroke-linejoin:round;stroke-miterlimit:10;" points="
					74.147,253.146 74.147,253.146 74.146,253.146 74.146,253.146 56.437,265.59 74.146,278.012 74.146,278.012 74.147,278.012 
					74.147,278.012 91.855,265.59 				"/>
				
					<polygon style="fill:none;stroke:#5EBBD8;stroke-width:0.5514;stroke-linecap:round;stroke-linejoin:round;stroke-miterlimit:10;" points="
					74.146,272.081 74.146,272.081 74.146,272.081 74.146,272.081 65.694,278.019 74.146,283.944 74.146,283.944 74.146,283.944 
					74.146,283.944 82.595,278.019 				"/>
			</g>
			<g>
				
					<linearGradient id="SVGID_00000083058276646896217520000002391601788452715165_" gradientUnits="userSpaceOnUse" x1="47.9655" y1="248.9696" x2="66.2377" y2="239.2153">
					<stop  offset="0" style="stop-color:#30338C"/>
					<stop  offset="0.7415" style="stop-color:#6A65A7"/>
					<stop  offset="1" style="stop-color:#7A75B1"/>
				</linearGradient>
				<polygon style="fill:url(#SVGID_00000083058276646896217520000002391601788452715165_);" points="74.146,257.979 
					40.268,234.215 40.268,230.094 74.146,253.858 				"/>
				
					<linearGradient id="SVGID_00000096771472110233343450000002260952705837451198_" gradientUnits="userSpaceOnUse" x1="91.0835" y1="258.3407" x2="91.0835" y2="240.3503">
					<stop  offset="0" style="stop-color:#9186BB"/>
					<stop  offset="1" style="stop-color:#C7C4E1"/>
				</linearGradient>
				<polygon style="fill:url(#SVGID_00000096771472110233343450000002260952705837451198_);" points="74.146,257.979 
					108.021,234.215 108.021,230.094 74.146,253.858 				"/>
				
					<linearGradient id="SVGID_00000083084042706139124310000015471674997064407211_" gradientUnits="userSpaceOnUse" x1="40.8874" y1="230.8763" x2="105.7039" y2="229.3512">
					<stop  offset="0" style="stop-color:#786FAD"/>
					<stop  offset="1" style="stop-color:#B2B3D7"/>
				</linearGradient>
				<polygon style="fill:url(#SVGID_00000083084042706139124310000015471674997064407211_);" points="74.146,206.31 74.146,206.31 
					74.146,206.31 74.146,206.31 40.268,230.114 74.146,253.878 74.146,253.878 74.146,253.878 74.146,253.878 108.021,230.114 				
					"/>
				<polygon style="opacity:0.8;fill:#3A3469;" points="74.146,209.64 74.146,209.64 74.146,209.64 74.146,209.64 45.014,230.111 
					74.146,250.545 74.146,250.545 74.146,250.545 74.146,250.545 103.277,230.111 				"/>
			</g>
		</g>
		<g>
			<g>
				<g>
					<g>
						<path style="fill:#09003C;" d="M72.87,238.682c-0.716,0.396-2.43,0.523-3.773-0.419c-1.988-1.395-6.131-3.984-6.131-4.373
							c0-0.316,0-0.927,0-0.927v-1.268v-0.598h6.56c0,0,0.009,0.425,0.009,0.589c0,0.253,0.033,1.204,0.549,1.684
							c0.731,0.687,1.122,1.13,2.31,2.284C73.639,236.866,73.754,238.192,72.87,238.682z"/>
					</g>
				</g>
				<g>
					<path style="fill:#09003C;" d="M69.726,231.931c0,0.343-1.236,1.289-3.242,1.683c-1.358,0.265-3.518-0.487-3.518-0.937
						c0-2.734,1.342-20.397,1.089-26.017c-0.421-9.417-0.556-34.958-0.556-34.958l11.746-4.517c0,0,0.586,3.582-0.16,10.85
						c-0.799,7.772-0.469,18.19-1.366,24.979C72.852,209.568,69.726,225.978,69.726,231.931z"/>
				</g>
				<g>
					<g>
						<path style="fill:#09003C;" d="M84.446,230.8c-0.717,0.395-2.428,0.522-3.772-0.42c-1.989-1.395-6.13-3.983-6.13-4.372
							c0-0.317,0-0.928,0-0.928v-1.267v-0.598h6.558c0,0,0.01,0.426,0.01,0.589c0,0.253,0.034,1.205,0.549,1.685
							c0.731,0.688,1.122,1.129,2.309,2.284C85.215,228.982,85.331,230.31,84.446,230.8z"/>
					</g>
				</g>
				<path style="fill:#09003C;" d="M81.43,223.645c-0.104,1.038-1.476,1.893-3.163,2.363c-1.336,0.37-4.082-0.054-4.082-0.716
					c0-2.732,1.279-20.876,1.029-26.494c-0.423-9.418,0.031-31.613,0.031-31.613l11.22-7.476c0,0,0.028,14.213-1.589,26.45
					C84.011,192.715,82.034,217.723,81.43,223.645z"/>
			</g>
		</g>
		<g>
			<g>
				<g>
					<path style="fill:#BC7860;" d="M132.032,95.248c0.181,0.388,0.247,0.861,0.184,1.416c-0.054,0.459,0.275,0.874,0.735,0.925
						c0.03,0.004,0.065,0.006,0.097,0.006c0.418,0,0.78-0.313,0.83-0.74c0.115-1.006-0.059-1.898-0.486-2.619
						C132.988,94.64,132.528,94.975,132.032,95.248z"/>
				</g>
				<g>
					<path style="fill:#D0856B;" d="M133.614,94.004c-0.385,0.432-0.831,0.798-1.32,1.098c0.038,0.024,0.078,0.04,0.111,0.066
						c0.593,0.427,0.846,1.153,0.736,2.1c-0.052,0.459,0.277,0.875,0.736,0.928c0.032,0.004,0.066,0.005,0.098,0.005
						c0.418,0,0.78-0.314,0.829-0.741C134.972,96.016,134.546,94.805,133.614,94.004z"/>
				</g>
				<g>
					<path style="fill:#E19D7E;" d="M134.073,93.678c-0.044-0.032-0.094-0.059-0.139-0.088c-0.07,0.114-0.148,0.224-0.236,0.328
						c-0.295,0.343-0.629,0.642-0.989,0.903c0.133,0.059,0.263,0.125,0.384,0.213c0.592,0.428,0.846,1.154,0.736,2.1
						c-0.053,0.459,0.276,0.874,0.735,0.927c0.033,0.004,0.063,0.005,0.097,0.005c0.418,0,0.781-0.313,0.831-0.74
						C135.672,95.765,135.168,94.47,134.073,93.678z"/>
				</g>
				<path style="fill:#EFAC8A;" d="M135.049,93.717c-0.059-0.043-0.121-0.076-0.183-0.115c-0.451,0.299-0.869,0.576-1.127,0.741
					c-0.187,0.121-0.386,0.234-0.599,0.359c0.325,0.052,0.648,0.166,0.928,0.369c0.591,0.427,0.845,1.154,0.736,2.101
					c-0.052,0.458,0.276,0.874,0.735,0.927c0.033,0.004,0.064,0.005,0.098,0.005c0.419,0,0.777-0.313,0.827-0.74
					C136.646,95.803,136.144,94.507,135.049,93.717z"/>
				<path style="fill:#F5BB95;" d="M137.316,91.073c-0.212-0.419-0.726-0.589-1.144-0.377c0,0-3.58,1.922-4.839,2.413
					c-0.588,0.229-1.857,0.642-2.36,0.894c-0.658,0.328-2.498,1.56-2.498,1.56l-5.697,2.903l4.56,2.817c0,0,1.602-0.966,2.21-1.345
					c0.903-0.558,2.097-1.341,4.376-1.086c0.644,0.055,1.929,0.104,2.174,0.089c0.461-0.031,0.808-0.428,0.779-0.889
					c-0.031-0.462-0.428-0.75-0.89-0.781c-0.89-0.06-1.418-0.099-1.977-0.114c-0.657-0.018-0.823-0.976-0.479-1.293
					c0.905-0.832,1.608-1.138,2.207-1.523c0.809-0.52,3.201-2.126,3.201-2.126C137.357,92.005,137.526,91.493,137.316,91.073z"/>
			</g>
			<path style="fill:#211D65;" d="M127.866,101.563l-41.115,26.393V115.55l37.034-19.324c0,0,2.393-0.007,3.71,1.589
				C128.712,99.291,127.866,101.563,127.866,101.563z"/>
		</g>
		<g>
			<g>
				<path style="fill:#E39E76;" d="M79.836,112.219c0,0,0.079,8.931,0.079,10.351c0,2.096-4.617-0.645-6.01-1.595
					c-4.972-3.382-4.775-4.412-4.871-5.281v-3.476H79.836z"/>
				<path style="fill:#F5BB95;" d="M73.726,93.948c-4.946,0-8.37,4.471-8.37,9.415l-0.002,3.265c0,4.793,6.009,9.843,10.932,9.843
					c0.414,0,2.999,0,4.186,0c1.283,0,1.653-1.275,1.653-1.866c0-0.363-0.004-2.339-0.004-3.443c0-0.764,0.421-1.047,0.561-1.092
					c0.853-0.284,0.322-0.925,0.207-1.242c-0.405-1.11-0.654-1.82-0.768-2.919c-0.159-1.526,0.149-3.459,0-4.445
					C81.567,97.771,78.67,93.948,73.726,93.948z"/>
			</g>
			<path style="fill:#09003C;" d="M65.355,103.363c0-4.944,3.027-9.415,8.437-9.415c4.517,0,8.016,3.39,8.328,7.516
				c-0.039-0.061-2.979-1.509-2.979,3.492c0,3.439-0.012,5.143-0.012,5.143l-1.269,0.001l-0.003,0.003
				c0.049-0.529-0.076-1.179-0.396-1.816c-0.608-1.217-1.674-1.921-2.373-1.571c-0.701,0.353-0.775,1.625-0.164,2.84
				c0.252,0.505,0.583,0.914,0.934,1.204l-0.004,0.003c0.889,1.163-3.742,4.369-5.003,3.976c0,0-5.498-3.063-5.498-8.11
				C65.354,105.841,65.355,103.363,65.355,103.363z"/>
		</g>
		<g>
			<g>
				<polygon style="fill:#928CBE;" points="68.354,119.242 76.724,122.581 79.915,119.082 78.054,138.282 				"/>
				<g>
					<path style="fill:#25216F;" d="M79.915,119.082l-1.861,19.2l-0.005,27.166c0,0,0.005,3.763,2.963,2.88
						c3.493-1.046,5.301-4.383,5.356-5.845c0.354-9.44,0.383-46.932,0.383-46.932L79.915,119.082z"/>
					<path style="fill:#25216F;" d="M78.054,138.282l-9.699-19.04c-3.997,2.811-5.362,3.761-5.362,3.761l0.042,19.142l2.026,13.545
						c0,0-1.175,10.683-1.727,16.726c-0.28,3.078,8.651,3.024,12.553-0.379c1.723-1.503,2.167-4.482,2.167-7.031
						C78.054,158.618,78.054,138.282,78.054,138.282z"/>
				</g>
				<path style="fill:#B2AFD4;" d="M69.048,115.79c0,0,0.23,1.613,2.035,3.029c1.806,1.421,4.674,3.74,6.192,3.062l-3.003,2.754
					c0,0-5.918-3.906-5.918-5.723C68.354,117.169,68.294,116.428,69.048,115.79z"/>
				<path style="fill:#B2AFD4;" d="M77.275,121.881l2.397,1.486l0.242-4.285C79.915,119.082,78.169,120.995,77.275,121.881z"/>
			</g>
			<g>
				<polygon style="fill:#191454;" points="78.322,124.785 78.264,122.495 77.275,121.881 75.128,123.892 76.712,125.655 				"/>
				<polygon style="fill:#191454;" points="76.738,125.424 75.759,133.779 78.054,138.282 78.792,131.652 78.291,124.339 				"/>
			</g>
			<polygon style="fill:#191454;" points="71.423,137.529 66.079,120.843 67.575,119.77 78.054,138.282 			"/>
			<polygon style="fill:#191454;" points="78.054,138.282 83.702,129.533 81.915,120.104 79.915,119.082 			"/>
			<polygon style="fill:#25216F;" points="78.054,138.282 72.066,136.947 66.079,120.843 68.354,119.242 			"/>
			<path style="fill:#25216F;" d="M78.054,138.282l4.911-8.982l-1.05-9.196c0,0-1.027-0.605-2-1.021L78.054,138.282z"/>
		</g>
		<g>
			<path style="fill:#F5BB95;" d="M61.012,180.179c0,0-1.302,7.796,2.625,8.59v-8.315L61.012,180.179z"/>
			<path style="fill:#25216F;" d="M65.225,121.407c0,0-0.887,0.669-2.232,1.596c-1.687,1.16-3.204,4.195-3.204,6.766
				c0,6.256,0,51.06,0,51.06s2.19,0.353,3.452-0.555c1.604-1.158,1.984-3.257,1.984-3.257V121.407z"/>
		</g>
		<g>
			<path style="fill:#0E0542;" d="M64.922,173.519l0.303-34.18l0.303,34.18c0.001,0.167-0.133,0.304-0.3,0.305
				c-0.168,0.002-0.305-0.133-0.306-0.3C64.922,173.523,64.922,173.52,64.922,173.519z"/>
		</g>
	</g>
	<g>
		<g>
			<g>
				
					<polygon style="fill:none;stroke:#5EBBD8;stroke-width:0.5514;stroke-linecap:round;stroke-linejoin:round;stroke-miterlimit:10;" points="
					351.052,328.654 351.052,328.654 351.054,328.654 351.054,328.654 375.933,346.137 351.054,363.592 351.054,363.592 
					351.052,363.592 351.052,363.592 326.171,346.137 				"/>
				
					<polygon style="fill:none;stroke:#5EBBD8;stroke-width:0.5514;stroke-linecap:round;stroke-linejoin:round;stroke-miterlimit:10;" points="
					351.052,349.658 351.052,349.658 351.054,349.658 351.054,349.658 368.761,362.1 351.054,374.523 351.054,374.523 
					351.052,374.523 351.052,374.523 333.345,362.1 				"/>
				
					<polygon style="fill:none;stroke:#5EBBD8;stroke-width:0.5514;stroke-linecap:round;stroke-linejoin:round;stroke-miterlimit:10;" points="
					351.054,368.593 351.054,368.593 351.054,368.593 351.054,368.593 359.502,374.529 351.054,380.454 351.054,380.454 
					351.054,380.454 351.054,380.454 342.604,374.529 				"/>
			</g>
			<g>
				
					<linearGradient id="SVGID_00000121263409994908004350000003565304859598613128_" gradientUnits="userSpaceOnUse" x1="1174.7203" y1="345.4796" x2="1192.991" y2="335.7261" gradientTransform="matrix(-1 0 0 1 1551.9531 0)">
					<stop  offset="0" style="stop-color:#30338C"/>
					<stop  offset="0.7415" style="stop-color:#6A65A7"/>
					<stop  offset="1" style="stop-color:#7A75B1"/>
				</linearGradient>
				<polygon style="fill:url(#SVGID_00000121263409994908004350000003565304859598613128_);" points="351.054,354.489 
					384.93,330.727 384.93,326.603 351.054,350.371 				"/>
				
					<linearGradient id="SVGID_00000086668290920927065010000012954146265497834655_" gradientUnits="userSpaceOnUse" x1="1217.8384" y1="354.851" x2="1217.8384" y2="336.8603" gradientTransform="matrix(-1 0 0 1 1551.9531 0)">
					<stop  offset="0" style="stop-color:#9186BB"/>
					<stop  offset="1" style="stop-color:#C7C4E1"/>
				</linearGradient>
				<polygon style="fill:url(#SVGID_00000086668290920927065010000012954146265497834655_);" points="351.054,354.489 
					317.176,330.727 317.176,326.603 351.054,350.371 				"/>
				
					<linearGradient id="SVGID_00000136392230164687574830000009017066473641334183_" gradientUnits="userSpaceOnUse" x1="1167.6432" y1="327.3863" x2="1232.4597" y2="325.8611" gradientTransform="matrix(-1 0 0 1 1551.9531 0)">
					<stop  offset="0" style="stop-color:#786FAD"/>
					<stop  offset="1" style="stop-color:#B2B3D7"/>
				</linearGradient>
				<polygon style="fill:url(#SVGID_00000136392230164687574830000009017066473641334183_);" points="351.054,302.82 
					351.054,302.82 351.054,302.82 351.054,302.82 384.93,326.625 351.054,350.387 351.054,350.387 351.054,350.387 
					351.054,350.387 317.176,326.625 				"/>
				<polygon style="opacity:0.8;fill:#3A3469;" points="351.054,306.153 351.054,306.153 351.054,306.153 351.054,306.153 
					380.186,326.623 351.054,347.057 351.054,347.057 351.054,347.057 351.054,347.057 321.921,326.623 				"/>
			</g>
		</g>
		<g>
			<g>
				<g>
					<g>
						<g>
							<path style="fill:#09003C;" d="M352.367,334.446c0.717,0.396,2.43,0.522,3.773-0.418c1.988-1.396,6.133-3.984,6.133-4.372
								c0-0.316,0-0.928,0-0.928v-1.268v-0.598h-6.561c0,0-0.011,0.427-0.011,0.59c0,0.253-0.031,1.203-0.547,1.685
								c-0.732,0.687-1.123,1.128-2.31,2.282C351.6,332.63,351.483,333.956,352.367,334.446z"/>
						</g>
					</g>
					<g>
						<path style="fill:#09003C;" d="M355.511,327.695c0,0.343,1.238,1.289,3.242,1.681c1.36,0.268,3.52-0.485,3.52-0.937
							c0-2.731-1.341-20.395-1.089-26.014c0.422-9.417,0.554-34.96,0.554-34.96l-11.745-4.517c0,0-0.587,3.581,0.161,10.85
							c0.799,7.771,0.469,18.19,1.365,24.977C352.385,305.333,355.511,321.741,355.511,327.695z"/>
					</g>
					<g>
						<g>
							<path style="fill:#09003C;" d="M340.791,326.563c0.716,0.397,2.429,0.522,3.772-0.418c1.99-1.395,6.133-3.983,6.133-4.372
								c0-0.316,0-0.928,0-0.928v-1.269v-0.598h-6.561c0,0-0.01,0.428-0.01,0.59c0,0.253-0.032,1.205-0.548,1.686
								c-0.733,0.686-1.12,1.128-2.309,2.282C340.022,324.746,339.908,326.073,340.791,326.563z"/>
						</g>
					</g>
					<path style="fill:#09003C;" d="M343.807,319.409c0.105,1.038,1.475,1.893,3.165,2.362c1.334,0.371,4.082-0.053,4.082-0.715
						c0-2.733-1.279-20.876-1.029-26.494c0.422-9.418-0.032-31.613-0.032-31.613l-11.22-7.475c0,0-0.028,14.212,1.589,26.447
						C341.228,288.478,343.204,313.486,343.807,319.409z"/>
				</g>
				<g>
					<polygon style="fill:#928CBE;" points="357.322,213.367 345.222,213.105 347.357,232.921 					"/>
					<g>
						<path style="fill:#25216F;" d="M345.222,213.105l2.136,19.816l0.006,27.899c0,0-0.006,3.869-3.042,2.96
							c-3.59-1.076-5.444-4.501-5.501-6.003c-0.363-9.698-0.36-9.534-0.36-26.458l0.014-13.424L345.222,213.105z"/>
						<path style="fill:#25216F;" d="M347.357,232.921l9.965-19.555c4.104,2.886,9.356,6.348,9.356,6.348l-3.895,17.171
							l-2.08,13.912c0,0,1.208,10.975,1.773,17.181c0.289,3.161-8.887,3.107-12.893-0.388c-1.769-1.545-2.228-4.605-2.228-7.225
							C347.357,253.808,347.357,232.921,347.357,232.921z"/>
					</g>
					<g>
						<path style="fill:#E39E76;" d="M347.384,199.492c0.888-0.456,2.395-0.712,3.486-0.712c3.391,0,5.738,3.149,5.738,6.539v4.502
							c0,2.165-4.723,5.749-7.619,6.334c-0.58,0.115-0.932,0.022-1.123-0.081c-0.407-0.22-0.765-0.811-0.837-0.956
							c-0.302-0.605-0.428-1.84-0.428-1.84L347.384,199.492z"/>
						<path style="fill:#F5BB95;" d="M350.921,192.41c4.162,0,7.046,3.866,7.046,8.026v2.938c0,4.656-6.745,10.798-10.908,10.798
							c-2.081,0-2.474-2.502-3.321-5.079c-0.614-1.866-0.354-7.231-0.354-9.522C343.383,195.411,346.759,192.41,350.921,192.41z"/>
						<path style="fill:#F5BB95;" d="M356.497,204.958c-0.58,1.157-0.509,2.364,0.158,2.697c0.665,0.333,1.674-0.333,2.253-1.489
							c0.577-1.158,0.507-2.365-0.159-2.699C358.084,203.133,357.073,203.801,356.497,204.958z"/>
					</g>
					<path style="fill:#B2AFD4;" d="M356.608,209.821c0,0-0.234,1.655-2.089,3.113c-1.856,1.457-5.093,3.838-6.653,3.141l3.377,2.83
						c0,0,6.077-4.008,6.077-5.877C357.32,211.238,357.384,210.476,356.608,209.821z"/>
					<path style="fill:#B2AFD4;" d="M346.736,214.151c0,0,0.176,1.275,1.13,1.923l-2.172,1.528l-0.473-4.498
						C345.222,213.105,345.811,213.962,346.736,214.151z"/>
				</g>
				<path style="fill:#09003C;" d="M353.06,198.78l3.858-2.547c0.672,1.253,1.049,2.707,1.049,4.203v2.938
					c0,0.029-0.002,0.06-0.004,0.089c-1.354,0.5-1.794,2.429-1.794,2.429l-1.083-0.76l-0.014-1.841
					c-1.512-0.193-2.785-2.859-3.263-3.996C352.587,199.01,353.06,198.78,353.06,198.78z"/>
				<path style="fill:#09003C;" d="M343.328,200.006v-0.001c0.003-0.154,0.003-0.3,0.003-0.434c0-4.16,3.375-7.161,7.539-7.161
					c2.706,0,4.941,1.315,6.051,3.823l-3.861,2.547C353.06,198.78,347.877,201.318,343.328,200.006z"/>
				<g>
					<polygon style="fill:#191454;" points="347.114,218.598 347.114,216.603 347.866,216.075 350.335,218.143 348.71,219.714 					
						"/>
					<polygon style="fill:#191454;" points="348.71,219.714 349.716,228.295 347.357,232.921 346.602,226.11 347.114,218.598 					
						"/>
				</g>
				<polygon style="fill:#191454;" points="354.171,232.145 359.659,215.008 358.122,213.906 347.357,232.921 				"/>
				<polygon style="fill:#191454;" points="347.357,232.921 341.557,223.934 343.395,214.249 345.222,213.105 				"/>
				<polygon style="fill:#25216F;" points="347.357,232.921 353.509,231.551 359.659,215.008 357.322,213.367 				"/>
				<path style="fill:#25216F;" d="M347.357,232.921l-5.043-9.224l1.08-9.448c0,0,0.826-0.719,1.827-1.145L347.357,232.921z"/>
			</g>
			<g>
				<g>
					<path style="fill:#F5BB95;" d="M358.352,263.918c-6.222-0.126-2.344-3.933-0.987-3.978c1.525-0.048,3.062-0.607,4.06-1.278
						c0.423-0.283,0.475-0.827,0.041-0.79l-0.14-1.318c0.432-0.16,1.114-0.393,1.739-0.579c1.995-0.599,3.415-1.455,4.171-0.336
						C368.967,258.213,363.603,264.025,358.352,263.918z"/>
					<path style="fill:#25216F;" d="M367.415,260.139c0,0,8.054-6.913,15.376-12.321c1.38-1.019,1.891-4.43,0.882-5.805
						c-2.35-3.202-10.058-14.359-16.18-21.676c-4.244-5.074-8.78-3.913-10.243-2.309c-2.884,3.159,0.821,5.77,4.563,10.162
						c3.467,4.065,7.792,10.21,10.94,15.072c0.461,0.711,0.474,1.784-0.044,2.282c-4.391,4.211-10.182,9.648-10.182,9.648
						S363.882,259.267,367.415,260.139z"/>
				</g>
				<g>
					<path style="fill:#25216F;" d="M317.745,234.577l20.729-16.682l-0.014,10.859l-15.815,12.681
						c-1.895,1.352-4.528,0.914-5.88-0.979C315.411,238.561,315.851,235.93,317.745,234.577z"/>
					<g>
						<path style="fill:#F5BB95;" d="M338.394,247.912c2.277,1.554,2.822,3.857,2.822,3.857l0,0
							c0.275,0.943,0.578,2.716,0.059,5.213c-0.079,0.39-0.425,0.659-0.809,0.659c-0.057,0-0.11-0.006-0.169-0.017
							c-0.329-0.067-0.57-0.324-0.638-0.633c-0.001,0.004-0.002,0.01-0.003,0.016c-0.081,0.392-0.425,0.66-0.81,0.66
							c-0.056,0-0.113-0.005-0.17-0.017c-0.318-0.067-0.554-0.309-0.63-0.604c-0.103,0.353-0.422,0.597-0.783,0.597
							c-0.056,0-0.112-0.006-0.169-0.017c-0.33-0.067-0.572-0.324-0.639-0.633c-0.002,0.004-0.004,0.01-0.004,0.016
							c-0.08,0.392-0.426,0.66-0.809,0.66c-0.057,0-0.111-0.005-0.169-0.017c-0.448-0.092-0.735-0.531-0.642-0.978
							c0.315-1.527,0.28-2.723,0.16-3.557c-0.098-0.609-0.224-1.065-0.357-1.408L338.394,247.912z"/>
						<g>
							<path style="fill:#25216F;" d="M316.728,235.728c1.264-1.725,3.687-2.098,5.413-0.836l16.895,13.02l-5.244,4.746
								l-16.228-11.518C315.839,239.878,315.464,237.454,316.728,235.728z"/>
						</g>
					</g>
				</g>
			</g>
		</g>
	</g>
	<g>
		<g>
			<g>
				
					<polygon style="fill:none;stroke:#5EBBD8;stroke-width:0.5514;stroke-linecap:round;stroke-linejoin:round;stroke-miterlimit:10;" points="
					214.828,180.021 214.828,180.021 214.828,180.021 214.828,180.021 189.946,197.503 214.828,214.958 214.828,214.958 
					214.828,214.958 214.828,214.958 239.708,197.503 				"/>
				
					<polygon style="fill:none;stroke:#5EBBD8;stroke-width:0.5514;stroke-linecap:round;stroke-linejoin:round;stroke-miterlimit:10;" points="
					214.828,201.024 214.828,201.024 214.828,201.024 214.828,201.024 197.118,213.468 214.828,225.889 214.828,225.889 
					214.828,225.889 214.828,225.889 232.536,213.468 				"/>
				
					<polygon style="fill:none;stroke:#5EBBD8;stroke-width:0.5514;stroke-linecap:round;stroke-linejoin:round;stroke-miterlimit:10;" points="
					214.828,219.958 214.828,219.958 214.828,219.958 214.828,219.958 206.376,225.896 214.828,231.822 214.828,231.822 
					214.828,231.822 214.828,231.822 223.276,225.896 				"/>
			</g>
			<g>
				
					<linearGradient id="SVGID_00000174579248675458418520000004956585550992556176_" gradientUnits="userSpaceOnUse" x1="188.6473" y1="196.8475" x2="206.9201" y2="187.0928">
					<stop  offset="0" style="stop-color:#30338C"/>
					<stop  offset="0.7415" style="stop-color:#6A65A7"/>
					<stop  offset="1" style="stop-color:#7A75B1"/>
				</linearGradient>
				<polygon style="fill:url(#SVGID_00000174579248675458418520000004956585550992556176_);" points="214.828,205.857 
					180.949,182.092 180.949,177.972 214.828,201.736 				"/>
				
					<linearGradient id="SVGID_00000080168665562455116660000014197388481511664051_" gradientUnits="userSpaceOnUse" x1="231.7661" y1="206.2182" x2="231.7661" y2="188.2281">
					<stop  offset="0" style="stop-color:#9186BB"/>
					<stop  offset="1" style="stop-color:#C7C4E1"/>
				</linearGradient>
				<polygon style="fill:url(#SVGID_00000080168665562455116660000014197388481511664051_);" points="214.826,205.857 
					248.706,182.092 248.706,177.972 214.826,201.736 				"/>
				
					<linearGradient id="SVGID_00000128453616638477151370000002984688891354757289_" gradientUnits="userSpaceOnUse" x1="181.569" y1="178.7542" x2="246.3884" y2="177.2291">
					<stop  offset="0" style="stop-color:#786FAD"/>
					<stop  offset="1" style="stop-color:#B2B3D7"/>
				</linearGradient>
				<polygon style="fill:url(#SVGID_00000128453616638477151370000002984688891354757289_);" points="214.828,154.188 
					214.828,154.188 214.826,154.188 214.826,154.188 180.949,177.991 214.826,201.755 214.826,201.755 214.828,201.755 
					214.828,201.755 248.706,177.991 				"/>
				<polygon style="opacity:0.8;fill:#3A3469;" points="214.828,157.518 214.828,157.518 214.826,157.518 214.826,157.518 
					185.694,177.989 214.826,198.423 214.826,198.423 214.828,198.423 214.828,198.423 243.958,177.989 				"/>
			</g>
		</g>
		<g>
			<g>
				<g>
					<path style="fill:#09003C;" d="M214.54,186.56c-0.715,0.396-2.429,0.522-3.773-0.419c-1.987-1.395-6.131-3.984-6.131-4.373
						c0-0.316,0-0.927,0-0.927v-1.267v-0.598h6.56c0,0,0.01,0.425,0.01,0.589c0,0.253,0.033,1.205,0.547,1.684
						c0.734,0.687,1.123,1.13,2.309,2.284C215.31,184.744,215.424,186.07,214.54,186.56z"/>
				</g>
			</g>
			<g>
				<path style="fill:#09003C;" d="M211.398,179.809c0,0.342-1.237,1.289-3.243,1.683c-1.359,0.266-3.518-0.487-3.518-0.937
					c0-2.734,1.341-20.397,1.089-26.017c-0.421-9.417-0.555-34.958-0.555-34.958l11.745-4.518c0,0,0.587,3.583-0.16,10.85
					c-0.799,7.772-0.47,18.19-1.366,24.978C214.523,157.446,211.398,173.855,211.398,179.809z"/>
			</g>
			<g>
				<g>
					<path style="fill:#09003C;" d="M226.118,178.678c-0.717,0.395-2.432,0.521-3.771-0.421c-1.99-1.395-6.135-3.983-6.135-4.372
						c0-0.316,0-0.928,0-0.928v-1.267v-0.598h6.562c0,0,0.01,0.426,0.01,0.589c0,0.253,0.032,1.205,0.548,1.684
						c0.731,0.688,1.123,1.129,2.309,2.284C226.886,176.86,227.003,178.188,226.118,178.678z"/>
				</g>
			</g>
			<path style="fill:#09003C;" d="M223.103,171.523c-0.107,1.037-1.476,1.893-3.165,2.362c-1.335,0.37-4.081-0.054-4.081-0.716
				c0-2.732,1.28-20.875,1.027-26.494c-0.421-9.418,0.032-31.614,0.032-31.614l11.22-7.475c0,0,0.028,14.213-1.59,26.45
				C225.682,140.593,223.703,165.601,223.103,171.523z"/>
			<polygon style="fill:#928CBE;" points="210.1,65.857 222.2,65.598 220.064,85.413 			"/>
			<g>
				<path style="fill:#25216F;" d="M222.2,65.598l-2.137,19.815l-0.005,27.9c0,0,0.005,3.868,3.042,2.959
					c3.59-1.074,5.443-4.501,5.5-6.002c0.363-9.697,0.361-9.534,0.361-26.458l-0.014-13.424L222.2,65.598z"/>
				<path style="fill:#25216F;" d="M220.064,85.413L210.1,65.857c-4.104,2.888-9.357,6.351-9.357,6.351l3.895,17.171l2.082,13.911
					c0,0-1.208,10.975-1.776,17.182c-0.287,3.159,8.89,3.106,12.895-0.389c1.77-1.543,2.227-4.604,2.227-7.223
					C220.064,106.3,220.064,85.413,220.064,85.413z"/>
			</g>
			<path style="fill:#E39E76;" d="M220.04,51.984c-0.891-0.456-2.398-0.711-3.488-0.711c-3.39,0-5.739,3.149-5.739,6.538v4.502
				c0,2.165,4.724,5.75,7.622,6.334c0.578,0.116,0.929,0.021,1.119-0.079c0.408-0.221,0.768-0.813,0.838-0.956
				c0.303-0.606,0.43-1.843,0.43-1.843L220.04,51.984z"/>
			<path style="fill:#F5BB95;" d="M216.5,44.901c-4.161,0-7.046,3.867-7.046,8.028v2.938c0,4.655,6.747,10.798,10.908,10.798
				c2.083,0,2.473-2.503,3.322-5.081c0.613-1.865,0.354-7.23,0.354-9.521C224.039,47.902,220.663,44.901,216.5,44.901z"/>
			<path style="fill:#B2AFD4;" d="M210.813,62.313c0,0,0.236,1.656,2.092,3.112c1.853,1.459,5.091,3.839,6.649,3.143l-3.375,2.828
				c0,0-6.078-4.008-6.078-5.876C210.101,63.73,210.038,62.969,210.813,62.313z"/>
			<path style="fill:#B2AFD4;" d="M220.686,66.643c0,0-0.177,1.279-1.132,1.926l2.173,1.527l0.474-4.498
				C222.2,65.598,221.609,66.455,220.686,66.643z"/>
			<g>
				<polygon style="fill:#191454;" points="220.307,71.092 220.307,69.097 219.554,68.568 217.088,70.635 218.713,72.208 				"/>
				<polygon style="fill:#191454;" points="218.713,72.208 217.708,80.788 220.064,85.413 220.821,78.604 220.307,71.092 				"/>
			</g>
			<polygon style="fill:#191454;" points="213.251,84.638 207.764,67.502 209.301,66.399 220.064,85.413 			"/>
			<polygon style="fill:#191454;" points="220.064,85.413 225.864,76.427 224.027,66.743 222.2,65.598 			"/>
			<polygon style="fill:#25216F;" points="220.064,85.413 213.912,84.043 207.764,67.502 210.1,65.857 			"/>
			<path style="fill:#25216F;" d="M220.064,85.413l5.043-9.223l-1.079-9.448c0,0-0.827-0.721-1.827-1.145L220.064,85.413z"/>
			<g>
				<path style="fill:#1A1556;" d="M237.192,94.927c-2.573-8.459-7.414-21.661-8.322-24.131v29.875l3.732,1.119
					C236.388,102.849,238.625,99.628,237.192,94.927z"/>
				<polygon style="fill:#1A1556;" points="232.36,101.689 214.993,96.762 216.333,92.354 234.026,95.871 				"/>
				<path style="fill:#F5BB95;" d="M224.509,98.155c0,0,3.655-4.188,4.444-3.167c0,0-0.179-1.444-0.906-2.4
					c-0.909-1.191-2.222-1.182-3.596-0.233c-1.373,0.948-2.251,1.552-2.251,1.552L224.509,98.155z"/>
				<path style="fill:#25216F;" d="M224.509,98.307c0,0-7.174,4.588-12.868,7.109c-1.567,0.695-3.3-0.328-4.163-1.799
					c-3.374-5.753-10.974-28.111-6.735-31.409c3.518-2.737,6.035,4.315,7.569,9.878c1.118,4.065,3.081,12.103,3.898,14.242
					c0.303,0.793,0.716,1.011,1.39,0.757c4.148-1.565,8.987-4.276,8.987-4.276S225.107,94.717,224.509,98.307z"/>
				<path style="fill:#F5BB95;" d="M216.201,92.788c-0.438-0.123-4.19-1.16-8.124-1.094c-0.363,0.004-0.654,0.303-0.649,0.669
					c0.006,0.364,0.293,0.643,0.669,0.65c0.372-0.007,1.928,0.276,2.286,0.293c-0.175,0.062-0.352,0.125-0.528,0.207
					c-0.332,0.152-0.481,0.542-0.327,0.873c0.151,0.333,0.541,0.479,0.873,0.328c0.063-0.029,0.127-0.048,0.188-0.075
					c-0.113,0.076-0.228,0.146-0.341,0.231c-0.288,0.222-0.344,0.636-0.121,0.925c0.127,0.17,0.324,0.259,0.523,0.259
					c0.142,0,0.281-0.044,0.4-0.135c0.097-0.074,0.195-0.134,0.294-0.198c-0.108,0.105-0.215,0.206-0.316,0.324
					c-0.236,0.278-0.203,0.694,0.073,0.931c0.124,0.105,0.277,0.156,0.429,0.156c0.186,0,0.371-0.077,0.502-0.23
					c0.252-0.293,0.533-0.524,0.832-0.71c-0.169,0.136-0.334,0.283-0.484,0.446c-0.246,0.269-0.229,0.686,0.04,0.934
					c0.126,0.115,0.286,0.172,0.447,0.172c0.178,0,0.357-0.072,0.485-0.213c0.457-0.498,1.077-0.83,1.725-1.051L216.201,92.788z"/>
			</g>
			<path style="fill:#09003C;" d="M214.425,52.874c2.268-1.467,3.861-0.396,6.889-0.396c4.049,0,6.297-1.825,6.551-3.729
				c0,0-1.277,0.711-2.508,0.132c-2.186-1.026-3.102-3.969-8.318-4.135c-5.855-0.186-10.284,4.745-8.041,11.134
				c0.639-0.035,1.436,0.587,1.93,1.569c0.538,1.075,0.506,2.185-0.037,2.604c2.211,3.481,6.492,6.61,9.461,6.61
				c1.796,0,2.609-2.119,3.322-4.737c0.229-0.845,0.306-2.046,0.306-2.046s-0.233-0.541-3.672-0.269
				c-1.421,0.112-2.944,0.411-4.219,0.927c-1.26,0.51-2.231-0.271-2.556-0.671c-0.698-0.862-1.068-1.545-1.188-1.978
				C211.773,55.804,213.14,53.707,214.425,52.874z M217.219,62.126c0.78-0.378,1.843-0.776,3.088-0.931
				c1.134-0.141,2.202-0.122,2.657-0.089c0.455,0.033,0.292,0.581-0.07,1.072c-1.439,1.941-3.531,1.589-5.729,0.765
				C216.71,62.772,216.927,62.27,217.219,62.126z"/>
			<path style="fill:#F5BB95;" d="M210.927,57.451c0.578,1.155,0.506,2.362-0.159,2.696c-0.667,0.333-1.675-0.333-2.253-1.49
				c-0.58-1.156-0.51-2.364,0.159-2.698C209.338,55.627,210.348,56.294,210.927,57.451z"/>
		</g>
	</g>
	<g>
		<g>
			<g>
				
					<linearGradient id="SVGID_00000110466109839696273130000017434303557487506828_" gradientUnits="userSpaceOnUse" x1="115.938" y1="239.2326" x2="136.0246" y2="228.5097">
					<stop  offset="0" style="stop-color:#30338C"/>
					<stop  offset="0.7415" style="stop-color:#6A65A7"/>
					<stop  offset="1" style="stop-color:#7A75B1"/>
				</linearGradient>
				<path style="fill:url(#SVGID_00000110466109839696273130000017434303557487506828_);" d="M144.197,249.002
					c-3.26-2.395-24.707-17.237-33.359-23.29c-0.863-0.604-1.856-1.327-2.512-1.785c-2.132-1.486-1.471-5.497-1.471-5.497
					l38.189,26.788v4.127C145.044,249.346,144.664,249.346,144.197,249.002z"/>
				
					<linearGradient id="SVGID_00000136375623726668957960000007434639565411491245_" gradientUnits="userSpaceOnUse" x1="178.8753" y1="250.0141" x2="178.8753" y2="216.7699">
					<stop  offset="0" style="stop-color:#9186BB"/>
					<stop  offset="1" style="stop-color:#C7C4E1"/>
				</linearGradient>
				<path style="fill:url(#SVGID_00000136375623726668957960000007434639565411491245_);" d="M145.809,249.051
					c4.826-3.384,49.818-35.091,65.277-45.934c2.182-1.531,1.529-5.301,1.529-5.301l-67.571,47.401v4.127
					C145.229,249.346,145.531,249.247,145.809,249.051z"/>
				
					<linearGradient id="SVGID_00000095298341852162449400000013411128874543353018_" gradientUnits="userSpaceOnUse" x1="107.5858" y1="209.3672" x2="209.2245" y2="206.9758">
					<stop  offset="0" style="stop-color:#786FAD"/>
					<stop  offset="1" style="stop-color:#B2B3D7"/>
				</linearGradient>
				<polygon style="fill:url(#SVGID_00000095298341852162449400000013411128874543353018_);" points="174.389,171.054 
					174.389,171.054 174.389,171.054 174.389,171.054 106.855,218.439 145.044,245.227 145.044,245.227 145.044,245.227 
					145.044,245.227 212.615,197.826 				"/>
				<polygon style="fill:#FFFFFF;" points="174.186,173.871 174.186,173.871 174.186,173.871 174.186,173.871 111.642,217.792 
					132.624,232.578 132.624,232.579 132.624,232.579 132.624,232.578 195.191,188.646 				"/>
				<polygon style="fill:#FFFFFF;" points="176.912,204.452 156.44,219.028 167.473,226.802 167.473,226.802 167.473,226.802 
					167.473,226.802 187.958,212.222 				"/>
			</g>
			
				<linearGradient id="SVGID_00000116229344580581427840000012090642775518211479_" gradientUnits="userSpaceOnUse" x1="95.4995" y1="200.1066" x2="116.0339" y2="189.1447">
				<stop  offset="0" style="stop-color:#30338C"/>
				<stop  offset="0.7415" style="stop-color:#6A65A7"/>
				<stop  offset="1" style="stop-color:#7A75B1"/>
			</linearGradient>
			<path style="fill:url(#SVGID_00000116229344580581427840000012090642775518211479_);" d="M106.855,218.43
				c0,0-2.288-0.083-2.288-2.421c0-6.248,0-40.265,0-44.146c0-0.481,0.354-1.172,0.354-1.172l1.935,1.069V218.43z"/>
			
				<linearGradient id="SVGID_00000045592396221229554130000015784182094733666433_" gradientUnits="userSpaceOnUse" x1="140.5943" y1="219.6501" x2="140.5943" y2="158.9762">
				<stop  offset="0" style="stop-color:#9186BB"/>
				<stop  offset="1" style="stop-color:#C7C4E1"/>
			</linearGradient>
			<polygon style="fill:url(#SVGID_00000045592396221229554130000015784182094733666433_);" points="106.855,218.43 
				174.333,171.054 174.333,124.385 106.855,171.76 			"/>
			<polygon style="fill:#47417D;" points="106.855,218.43 174.333,171.054 174.333,124.385 106.855,171.76 			"/>
			
				<linearGradient id="SVGID_00000030475401332863944850000008734979494244467887_" gradientUnits="userSpaceOnUse" x1="105.0277" y1="148.6148" x2="172.4727" y2="147.0279">
				<stop  offset="0" style="stop-color:#B2B3D7"/>
				<stop  offset="1" style="stop-color:#786FAD"/>
			</linearGradient>
			<path style="fill:url(#SVGID_00000030475401332863944850000008734979494244467887_);" d="M169.47,125.011
				c-14.8,10.353-57.29,40.247-63.479,44.483c-0.852,0.581-1.069,1.197-1.069,1.197l1.935,1.078l0,0l0,0l0,0l67.477-47.376
				C174.333,124.393,172.664,122.777,169.47,125.011z"/>
			<polygon style="fill:#594E83;" points="109.563,213.31 172.198,169.344 172.198,129.149 109.563,173.115 			"/>
			<polygon style="opacity:0.39;fill:#FFFFFF;" points="143.461,149.427 109.715,173.115 109.715,213.31 172.126,169.501 			"/>
			<polygon style="opacity:0.39;fill:#FFFFFF;" points="109.418,213.253 169.838,170.843 153.122,159.086 109.418,189.779 			"/>
			<polygon style="opacity:0.39;fill:#FFFFFF;" points="109.715,184.666 129.107,170.863 121.023,165.177 109.715,173.115 			"/>
		</g>
		<g>
			<polygon style="fill:#47417D;" points="138.751,242.098 143.828,245.689 143.828,247.26 138.751,243.669 			"/>
			<polygon style="fill:#47417D;" points="132.137,237.428 137.217,241.018 137.217,242.589 132.137,238.998 			"/>
			<polygon style="fill:#47417D;" points="117.056,226.872 129.762,235.792 129.762,237.363 117.056,228.442 			"/>
			<polygon style="fill:#47417D;" points="107.972,220.517 113.051,224.108 113.051,225.678 107.972,222.088 			"/>
		</g>
	</g>
</g>
</svg>
